<?xml version="1.0" encoding="utf-8"?>
<!-- Generator: Adobe Illustrator 16.0.0, SVG Export Plug-In . SVG Version: 6.00 Build 0)  -->
<!DOCTYPE svg PUBLIC "-//W3C//DTD SVG 1.1//EN" "http://www.w3.org/Graphics/SVG/1.1/DTD/svg11.dtd">
<svg version="1.1" id="Layer_1" xmlns="http://www.w3.org/2000/svg" xmlns:xlink="http://www.w3.org/1999/xlink" x="0px" y="0px"
	 width="1096px" height="780px" viewBox="0 0 1096 780" enable-background="new 0 0 1096 780" xml:space="preserve">
<g>
	<polygon fill="#9E99A1" points="-10.505,-5.463 1102.842,-13.789 1102.842,845.713 -10.505,854.039 	"/>
	<g>
		<path fill="#FFFFFF" d="M14.312,444.898c0,0-38.444,9.97-46.504,43.233c-8.06,33.271-2.336,45.395,3.908,58.224
			c6.246,12.827,20.553,26.229,20.553,26.229s15.827-9.562,17.801-18.668c1.973-9.104,11.239-37.808,12.577-59.539
			c1.339-21.729-0.229-23.845-3.862-33.152C15.153,451.914,14.312,444.898,14.312,444.898"/>
		<path fill="#E0D6AF" d="M33.118,500.533c0,0-4.903,33.105-10.739,42.894c-5.835,9.787-13.624,24.299-21.004,27.592
			c-7.378,3.292-10.877,1.521-10.877,1.521s3.226-13.307,9.266-28.703c6.04-15.396,7.128-22.754,16.12-32.699
			c8.992-9.943,15.167-17.802,15.167-17.802L33.118,500.533z"/>
	</g>
	<g>
		<path fill="#AEA894" d="M51.395,255.385c0,0-2.028,3.55-6.086,6.592c-4.057,3.043-7.099,6.592-7.099,10.649
			s0.507,9.128,0.507,9.128l0.508,20.791l11.662,8.62l7.1-26.876l-4.057-18.763L51.395,255.385z"/>
		<path fill="#E5D9B6" d="M11.334,254.371c0,0,0.507,5.578-3.551,6.085c-4.055,0.508-11.662,4.058-15.719,11.663
			c-4.057,7.607-5.07,18.256-5.07,18.256l9.127,15.72l32.961,4.563l15.72-7.605c0,0,2.536-16.734-3.549-26.876
			c-6.086-10.143-11.157-12.17-18.256-15.213C15.899,257.921,11.334,254.371,11.334,254.371"/>
		<path fill="#D3CEBC" d="M51.395,255.385c0,0,6.592,16.227,11.662,23.326c5.071,7.1,7.607,25.861,6.086,34.482
			c-1.521,8.62-4.564,33.469-7.1,40.567c-2.536,7.098-6.085,13.692-6.085,19.269c0,5.578-2.536,7.1-2.536,7.1L41.76,358.833
			l-0.508-43.104c0,0,11.663-16.733,12.678-26.876c1.015-10.142-1.015-15.72-2.028-21.805
			C50.887,260.963,51.395,255.385,51.395,255.385"/>
		<path fill="#AAAD98" d="M-65.237,334.492c0,0,5.578-5.071,9.128-6.085c3.549-1.014,14.705-0.507,14.705-0.507l16.734,30.932
			l22.82,17.75l21.805,25.354c0,0-16.734-10.143-28.905-14.195c-12.17-4.059-20.79-10.65-29.411-21.805
			c-8.621-11.156-12.677-22.819-18.763-24.342c-6.085-1.521-10.142-1.521-10.142-1.521L-65.237,334.492z"/>
		<path fill="#E0D6AF" d="M-41.911,297.474c0,0,4.058,0,9.636-2.028c5.578-2.029,7.605-6.085,13.184-6.085
			c5.579,0,11.156-0.508,17.24,3.042c6.086,3.55,13.186,11.156,13.186,11.156l4.564,20.791l20.283,85.191
			c0,0-10.143,4.564-22.82-9.635c-12.676-14.198-21.805-20.284-31.439-25.862c-9.634-5.577-21.805-26.368-24.34-44.116
			C-44.954,312.18-41.911,297.474-41.911,297.474"/>
		<path fill="#FFFFFF" d="M20.461,292.403c0,0,2.535-3.55,7.606-1.521c5.071,2.027,17.242,5.07,22.82,20.282
			c5.577,15.214,8.62,22.313,6.592,36.512c-2.028,14.199-4.058,13.691-1.521,25.354c2.535,11.664,2.942,30.064-3.558,34.064
			c-7.928,4.879-17.5,5-23.827-0.6c-4.296-3.801-9.127-16.733-19.269-31.438c-10.142-14.707-21.806-37.019-15.72-50.203
			c6.084-13.184,11.156-19.27,14.199-27.383c3.041-8.114,2.027-10.649,2.027-10.649L20.461,292.403z"/>
	</g>
	<g>
		<path fill="#AAAD98" d="M92.777,249.331c0,0-3.796-7.544-10.565-8.43c-6.771-0.885-20.808-3.209-32.746-15.385
			c-11.939-12.173-19.412-29.354-29.814-30.958c-10.405-1.604-28.475,12.641-33.433,17.097c-3.264,2.933-6.729,5.402-10.506,7.606
			c-2.123,1.239-6.139,3.787-8.327,1.354c-2.971-3.307-2.58-10.626-2.58-10.626l40.046-33.004c0,0,36.227-0.69,59.56,14.191
			C76.1,198.63,87.17,206.277,93.35,218.94c4.727,9.694,6.371,18.174,2.899,24.283L92.777,249.331z"/>
		<path fill="#E0D6AF" d="M120.74,98.725c0,0-18.771-2.049-30.837,7.796c-4.881,3.986-9.478,8.306-14.003,12.686
			c-3.777,3.657-6.755,8.46-10.796,11.782c-3.888,3.196-6.596,6.395-10.946,8.856c-4.725,2.676-9.582,4.781-14.381,7.333
			c-8.427,4.48-18.493,10.805-28.196,11.808c-10.02,1.039-33.305-4.923-33.305-4.923s24.854-33.288,35.376-43.742
			c7.554-7.503,16.224-14.213,25.707-19.095c21.65-11.146,49.541-19.649,71.305-4.107C116.22,91.088,120.74,98.725,120.74,98.725"/>
		<path fill="#F3E5C0" d="M-0.475,1.527C1.412,4.163-17.187,15.612-19.65,16.866c-7.734,3.938-15.421,8.697-20.267,16.124
			c-2.847,4.364-5.108,10.104-6.124,15.224c-3.007,15.191,4.918,31.29,9.377,45.568c4.479,14.339,8.956,28.679,13.435,43.02
			c0.541,1.735,1.083,3.472,1.623,5.206l3.738,8.59c0,0,33.047-19.741,38.354-50.402c4.066-23.498,11.417-46.755-1.365-68.788
			c-3.354-5.779-7.268-11.197-10.852-16.827C3.431,6.978-0.475,1.527-0.475,1.527"/>
		<path fill="#F1E8D6" d="M109.854,155.313c0,0-11.561,0.434-25.109,8.626c-13.551,8.192-28.641,15.779-37.122,17.425
			c-19.114,3.712-34.706,7.466-50.796,18.7c-6.317,4.408-12.67,9.021-18.721,13.775c-7.496,5.892-14.05,13.227-23.952,14.872
			c-11.941,1.982-24.035-5.945-29.51-16.743c-2.087-4.119-3.379-9.026-1.715-13.332c0.625-1.622,1.636-3.062,2.635-4.486
			c5.438-7.732,11.01-15.604,18.618-21.216c13.322-9.822,29.151-15.288,44.705-19.9c14.417-4.276,29.146-9.098,44.067-11.263
			c18.501-2.685,35.403-4.93,47.348-2.721c11.945,2.21,16.458,6.124,20.032,7.887C103.913,148.702,109.854,155.313,109.854,155.313"
			/>
		<path fill="#FFFFFF" d="M-34.307,45.875c0,0-11.844,5.001-16.462,7.295c-8.942,4.434-16.662,17.572-14.632,28.695
			c2.029,11.123,6.664,37.211,3.79,51.743c-2.873,14.532-3.062,31.555-3.062,31.555s10.949,8.696,13.978,10.956l3.025,2.261
			l9.573,7.328c0,0,18.785-17.88,28.604-44.628c9.82-26.75,18.705-55.646,1.646-70.192c-17.055-14.546-16.56-13.995-20.52-18.403
			L-34.307,45.875z"/>
	</g>
	<g>
		<path fill="#AAAD98" d="M130.209,691.067c0,0-7.244-2.072-11.92,1.832c-4.675,3.902-14.69,11.708-29.898,12.176
			c-15.206,0.47-30.996-5.021-38.339,0.832c-7.345,5.854-8.93,26.323-9.007,32.271c-0.05,3.916-0.526,7.685-1.364,11.493
			c-0.472,2.141-1.229,6.317-4.149,6.281C31.566,755.9,27,751.217,27,751.217l2.572-46.229c0,0,21.459-24.184,45.333-30.485
			c11.96-3.158,23.671-5.795,35.715-2.188c9.218,2.765,15.774,6.812,17.682,12.782L130.209,691.067z"/>
		<path fill="#E0D6AF" d="M48.331,581.634c0,0-12.697,11.074-13.536,24.943c-0.337,5.612-0.285,11.239-0.148,16.855
			c0.114,4.689,1.463,9.55,1.198,14.207c-0.254,4.484,0.206,8.194-0.811,12.537c-1.103,4.719-2.659,9.178-3.888,13.868
			c-2.158,8.237-4.098,18.666-9.308,25.638c-5.378,7.201-23.374,18.869-23.374,18.869s-6.803-36.436-7.297-49.662
			c-0.352-9.489,0.489-19.236,3.024-28.412c5.782-20.939,17.074-44.381,40.433-49.256C40.587,579.979,48.331,581.634,48.331,581.634
			"/>
		<path fill="#F1E8D6" d="M78.866,623.001c0,0-6.708,7.847-9.528,21.689c-2.823,13.844-6.973,28.331-11.023,34.889
			c-9.125,14.784-16.094,27.282-18.456,44.631c-0.929,6.811-1.746,13.767-2.287,20.611c-0.669,8.479,0.179,17.217-4.732,24.707
			c-5.922,9.029-18.437,12.17-28.831,9.229c-3.964-1.121-7.965-3.243-9.782-6.938c-0.687-1.395-1.021-2.93-1.349-4.442
			c-1.784-8.243-3.578-16.66-2.657-25.045c1.615-14.68,7.604-28.368,13.986-41.36c5.916-12.043,11.66-24.621,19.266-35.719
			c9.428-13.76,18.18-26.205,26.853-32.704c8.673-6.499,13.971-7.092,17.29-8.37C70.936,622.899,78.866,623.001,78.866,623.001"/>
		<path fill="#FFFFFF" d="M-80.113,651.373c0,0-3.883,10.794-5.171,15.211c-2.5,8.548,1.449,21.558,9.972,26.953
			c8.524,5.396,28.439,18.136,36.235,28.811c7.794,10.674,18.847,21.097,18.847,21.097s12.326-1.926,15.64-2.545l3.314-0.614
			l10.597-1.851c0,0-0.368-23.137-11.975-45.756c-11.608-22.62-25.189-45.926-45.048-43.532
			c-19.856,2.392-19.196,2.396-24.482,2.328L-80.113,651.373z"/>
		<path fill="#E5D9B6" d="M2.695,739.671c0,0-24.483,2.331-35.133,8.145c-10.647,5.812-13.843-2.817-21.765-3.581
			c-7.921-0.763-15.164-2.84-25.862,6.938c-10.699,9.778-22.848,29.45-19.68,40.063c3.17,10.615,7.652,21.911,7.652,21.911
			s-1.32-0.021,9.896,1.443c11.218,1.465,25.104,0.98,38.371-2.812c13.265-3.797,23.33-15.564,28.759-26.73
			c5.429-11.167,8.233-23.688,11.637-31.575C-0.024,745.584,2.695,739.671,2.695,739.671"/>
		<path fill="#D3CEBC" d="M2.461,739.819c0.01-0.003,9.814-3.135,18.677,4.715c9.359,8.284,13.965,20.467,9.526,27.795
			c-2.761,4.558-7.902,6.417-17.04,7.604c-7.717,1.001-15.861-0.019-20.027-0.724c-4.663-0.786-5.47-1.201-5.472-1.204
			c-0.808-0.716,3.227-18.106,4.112-20.854C-5.407,749.819-3.444,743.003,2.461,739.819"/>
	</g>
	<g>
		<path fill="#AEA894" d="M253.979-11.916c0,0-3.694,1.753-8.762,1.93c-5.068,0.178-9.593,1.351-11.913,4.68
			c-2.319,3.328-4.802,7.779-4.802,7.779l-11.469,17.349l4.642,13.739l21.189-17.992l7.397-17.714L253.979-11.916z"/>
		<path fill="#E5D9B6" d="M221.689-35.649c0,0-2.773,4.866-6.392,2.962c-3.617-1.901-11.888-3.337-19.564,0.583
			c-7.677,3.923-14.596,12.08-14.596,12.08l-1.499,18.116l24.436,22.586l17.246,2.746c0,0,11.647-12.28,12.452-24.079
			c0.805-11.802-2.197-16.364-6.282-22.918C223.404-30.126,221.689-35.649,221.689-35.649"/>
		<path fill="#D3CEBC" d="M253.979-11.916c0,0-3.868,17.082-3.767,25.806c0.103,8.725-8.542,25.568-14.719,31.772
			c-6.176,6.202-22.878,24.851-29.016,29.225c-6.139,4.376-12.821,7.757-16.008,12.332c-3.189,4.577-6.14,4.375-6.14,4.375
			l2.606-24.14l24.224-35.656c0,0,19.136-7.063,25.767-14.805c6.63-7.741,8.154-13.478,10.8-19.05
			C250.372-7.629,253.979-11.916,253.979-11.916"/>
		<path fill="#AAAD98" d="M113.062-13.685c0,0,7.475-0.971,10.967,0.227c3.491,1.197,12.355,7.99,12.355,7.99l-3.952,34.945
			l8.576,27.609l3.396,33.268c0,0-7.932-17.889-15.6-28.174c-7.665-10.287-10.969-20.623-11.666-34.704
			c-0.696-14.081,2.645-25.97-1.479-30.697c-4.123-4.728-7.451-7.047-7.451-7.047L113.062-13.685z"/>
		<path fill="#E0D6AF" d="M153.362-30.722c0,0,3.329,2.319,9.065,3.845c5.737,1.524,9.719-0.646,14.296,2.543
			c4.577,3.189,9.444,5.961,12.406,12.352c2.964,6.392,4.44,16.691,4.44,16.691l-8.14,19.668L153.37,105.87
			c0,0-10.931-2.054-13.216-20.951c-2.283-18.896-6.294-29.107-11.011-39.192c-4.717-10.083-2.817-34.099,5.249-50.11
			C142.458-20.395,153.362-30.722,153.362-30.722"/>
		<path fill="#FFFFFF" d="M207.436,0.774c0,0,4.11-1.464,7.111,3.1c3.002,4.562,11.249,14.018,7.128,29.688
			c-4.121,15.671-5.683,23.235-15.464,33.726c-9.78,10.489-11.156,8.914-15.742,19.934c-4.588,11.02-14.774,26.352-22.394,25.918
			c-9.294-0.529-17.217-5.902-19.207-14.113c-1.352-5.574,2.078-18.947,2.163-36.811c0.086-17.864,3.271-42.839,15.802-50.177
			c12.528-7.339,20.169-9.433,27.304-14.351c7.133-4.918,7.751-7.578,7.751-7.578L207.436,0.774z"/>
	</g>
	<g>
		<path fill="#FFFFFF" d="M304.686-43.34c0,0-28.975,27.163-20.119,60.227s19.687,40.967,31.312,49.239
			c11.627,8.272,30.604,13.182,30.604,13.182s9.312-15.973,6.687-24.913c-2.628-8.938-8.24-38.572-17.472-58.291
			c-9.231-19.718-11.621-20.823-19.27-27.254C308.784-37.584,304.686-43.34,304.686-43.34"/>
		<path fill="#E0D6AF" d="M347.838-3.507c0,0,11.551,31.413,11.115,42.798c-0.438,11.386-0.323,27.856-5.228,34.281
			c-4.897,6.423-8.817,6.545-8.817,6.545s-3.541-13.227-5.612-29.635c-2.072-16.409-4.639-23.389-1.508-36.426
			c3.13-13.038,4.789-22.891,4.789-22.891L347.838-3.507z"/>
	</g>
	<g>
		<path fill="#AAAD98" d="M663.685,17.587c0,0-7.24-2.072-11.92,1.832c-4.675,3.905-14.688,11.708-29.896,12.176
			c-15.206,0.47-30.996-5.021-38.34,0.832c-7.349,5.856-8.933,26.324-9.008,32.271c-0.052,3.916-0.525,7.682-1.363,11.493
			c-0.475,2.141-1.229,6.317-4.148,6.281c-3.967-0.052-8.531-4.735-8.531-4.735l2.571-46.23c0,0,21.459-24.181,45.333-30.485
			c11.959-3.158,23.671-5.795,35.715-2.19c9.222,2.765,15.774,6.813,17.685,12.785L663.685,17.587z"/>
		<path fill="#B7AB96" d="M483.09,56.591c0,0,2.952,1.691,10.146,7.731c7.191,6.039,11.083,12.035,11.083,12.035l13.899-1.804
			l-5.703-19.24l-28.979-7.64L483.09,56.591z"/>
		<path fill="#E0D6AF" d="M581.806-91.846c0,0-12.693,11.074-13.536,24.943c-0.338,5.613-0.282,11.239-0.146,16.858
			c0.113,4.689,1.463,9.548,1.198,14.207c-0.254,4.484,0.206,8.194-0.812,12.537c-1.103,4.719-2.659,9.178-3.888,13.868
			c-2.158,8.237-4.098,18.666-9.31,25.638c-5.381,7.201-23.375,18.869-23.375,18.869s-6.804-36.436-7.298-49.662
			c-0.352-9.491,0.489-19.239,3.024-28.412c5.782-20.942,17.074-44.381,40.434-49.256C574.062-93.5,581.806-91.846,581.806-91.846"
			/>
		<path fill="#F3E5C0" d="M444.733-71.124c2.867,0.357-0.869,19.481-1.535,21.856c-2.099,7.455-3.623,15.376-1.685,23.047
			c1.144,4.507,3.538,9.462,6.282,13.225c8.147,11.161,23.5,15.699,35.562,21.409c12.113,5.735,24.229,11.472,36.346,17.208
			c1.466,0.694,2.932,1.39,4.396,2.084l7.896,2.744c0,0,7.038-33.619-9.864-55.645c-12.954-16.88-23.765-35.768-45.948-40.71
			c-5.816-1.296-11.738-2.006-17.602-3.06C450.671-70.387,444.733-71.124,444.733-71.124"/>
		<path fill="#D3CEBC" d="M367.789,2.58c0,0,5.82,9.987,15.604,20.025c3.713,3.807,8.238,7.154,11.364,11.388
			c3.509,4.746,9.062,9.269,13.479,13.21c2.933,2.619,6.442,4.097,9.459,6.572c4.902,4.026,16.762,7.152,29.663,6.327
			c12.896-0.827,25.816-3.636,35.73-3.511c9.909,0.127,17.814,2.21,22.72,6.238l4.905,4.027c0,0-17.523-25.009-39.152-39.163
			c-21.63-14.153-23.496-23.098-23.446-27.065l0.05-3.964c0.054-4.265-10.979-8.509-13.729-9.377
			c-15.329-4.843-31.021-1.352-45.549,4.3c-4.314,1.675-8.559,3.529-12.831,5.313C372.646-1.671,369.139-1.307,367.789,2.58"/>
		<path fill="#F1E8D6" d="M612.341-50.479c0,0-6.708,7.847-9.528,21.689c-2.819,13.844-6.973,28.331-11.021,34.889
			c-9.125,14.784-16.094,27.282-18.455,44.631c-0.93,6.811-1.746,13.767-2.287,20.611c-0.67,8.48,0.178,17.217-4.729,24.707
			c-5.924,9.032-18.438,12.17-28.831,9.23c-3.964-1.121-7.966-3.243-9.782-6.938c-0.688-1.392-1.021-2.927-1.35-4.442
			c-1.783-8.243-3.577-16.66-2.656-25.045c1.615-14.68,7.604-28.368,13.984-41.36C543.6,15.45,549.345,2.872,556.951-8.226
			c9.428-13.76,18.18-26.205,26.854-32.704s13.974-7.092,17.289-8.37C604.411-50.581,612.341-50.479,612.341-50.479"/>
		<path fill="#FFFFFF" d="M453.362-22.107c0,0-3.886,10.794-5.171,15.211c-2.5,8.548,1.446,21.558,9.972,26.953
			c8.524,5.397,28.438,18.136,36.235,28.811c7.794,10.674,18.847,21.094,18.847,21.094s12.326-1.923,15.64-2.543l3.314-0.616
			l10.597-1.848c0,0-0.368-23.137-11.975-45.756c-11.608-22.62-25.189-45.926-45.048-43.533c-19.856,2.39-19.196,2.397-24.482,2.329
			L453.362-22.107z"/>
		<path fill="#E5D9B6" d="M536.17,66.191c0,0-24.483,2.331-35.133,8.142c-10.647,5.815-13.843-2.817-21.766-3.581
			c-7.923-0.76-15.163-2.838-25.861,6.94c-10.699,9.778-22.851,29.45-19.68,40.063c3.17,10.617,7.649,21.912,7.649,21.912
			s-1.32-0.02,9.896,1.445c11.218,1.465,25.103,0.98,38.371-2.815c13.265-3.796,23.327-15.564,28.759-26.73
			c5.429-11.167,8.23-23.688,11.637-31.575C533.451,72.104,536.17,66.191,536.17,66.191"/>
		<path fill="#D3CEBC" d="M535.936,66.339c0.013-0.003,9.814-3.132,18.68,4.715c9.356,8.284,13.965,20.467,9.523,27.795
			c-2.761,4.558-7.899,6.417-17.04,7.604c-7.717,1.001-15.858-0.019-20.024-0.724c-4.663-0.786-5.473-1.201-5.475-1.204
			c-0.808-0.716,3.229-18.109,4.112-20.856C528.068,76.339,530.031,69.523,535.936,66.339"/>
	</g>
	<g>
		<path fill="#FFFFFF" d="M779.392-28.825c0,0-37.594-12.81-62.613,10.546C691.754,5.077,689.869,18.351,688.03,32.5
			c-1.838,14.15,2.747,33.209,2.747,33.209s18.477,0.715,25.133-5.806c6.654-6.521,30.175-25.401,43.242-42.817
			c13.062-17.415,12.918-20.043,15.001-29.815C776.235-22.502,779.392-28.825,779.392-28.825"/>
		<path fill="#E0D6AF" d="M764.51,27.986c0,0-22.299,24.959-32.554,29.924c-10.255,4.967-24.739,12.806-32.715,11.499
			c-7.975-1.306-9.922-4.709-9.922-4.709s10.012-9.341,23.521-18.881s18.465-15.086,31.443-18.45
			c12.979-3.364,22.456-6.53,22.456-6.53L764.51,27.986z"/>
	</g>
	<g>
		<path fill="#D3CEBC" d="M915.358-56.597c0,0,6.592,16.227,11.659,23.326c5.071,7.1,7.607,25.861,6.087,34.482
			c-1.521,8.62-4.562,33.468-7.101,40.568c-2.535,7.098-6.085,13.691-6.085,19.269c0,5.578-2.536,7.1-2.536,7.1l-11.66-21.298
			l-0.508-43.103c0,0,11.663-16.733,12.678-26.876c1.018-10.142-1.015-15.72-2.025-21.805
			C914.851-51.019,915.358-56.597,915.358-56.597"/>
		<path fill="#AAAD98" d="M798.727,22.51c0,0,5.578-5.071,9.131-6.085c3.549-1.014,14.702-0.507,14.702-0.507l16.734,30.932
			l22.82,17.749l21.805,25.354c0,0-16.734-10.143-28.905-14.198c-12.17-4.059-20.79-10.65-29.411-21.806
			c-8.618-11.156-12.677-22.818-18.763-24.341c-6.085-1.521-10.142-1.521-10.142-1.521L798.727,22.51z"/>
		<path fill="#E0D6AF" d="M822.053-14.508c0,0,4.061,0,9.639-2.028c5.575-2.029,7.604-6.085,13.184-6.085s11.156-0.508,17.24,3.042
			C868.2-16.029,875.3-8.423,875.3-8.423l4.564,20.791l20.283,85.191c0,0-10.146,4.564-22.82-9.635
			c-12.676-14.198-21.805-20.284-31.439-25.862c-9.634-5.577-21.805-26.368-24.34-44.116
			C819.01,0.198,822.053-14.508,822.053-14.508"/>
		<path fill="#FFFFFF" d="M884.425-19.579c0,0,2.535-3.55,7.606-1.521c5.068,2.027,17.242,5.07,22.817,20.282
			c5.577,15.214,8.62,22.313,6.595,36.511c-2.028,14.199-4.061,13.691-1.521,25.354c2.535,11.664,2.942,30.067-3.558,34.067
			c-7.931,4.879-17.5,5-23.827-0.6c-4.296-3.801-9.127-16.733-19.271-31.438c-10.142-14.706-21.806-37.019-15.72-50.203
			c6.084-13.184,11.156-19.27,14.199-27.383c3.041-8.114,2.026-10.649,2.026-10.649L884.425-19.579z"/>
	</g>
	<g>
		<g>
			<g>
				<path fill="#FFFFFF" d="M1109.258,444.898c0,0-38.441,9.97-46.504,43.233c-8.061,33.271-2.336,45.395,3.907,58.224
					c6.245,12.827,20.554,26.229,20.554,26.229s15.826-9.562,17.801-18.668c1.976-9.104,11.238-37.808,12.577-59.539
					c1.339-21.729-0.229-23.845-3.862-33.152C1110.098,451.914,1109.258,444.898,1109.258,444.898"/>
				<path fill="#E0D6AF" d="M1128.062,500.533c0,0-4.902,33.105-10.738,42.894c-5.835,9.787-13.623,24.299-21.004,27.592
					c-7.377,3.292-10.877,1.521-10.877,1.521s3.227-13.307,9.266-28.703c6.039-15.396,7.129-22.754,16.12-32.699
					c8.992-9.943,15.167-17.802,15.167-17.802L1128.062,500.533z"/>
			</g>
		</g>
		<g>
			<g>
				<path fill="#AEA894" d="M1068.754,269.077c0,0,7.607,1.521,11.664,5.578c4.057,4.057,6.592,10.142,6.592,10.142l-4.057,17.241
					l-21.297,0.507c0,0-3.551-13.184,0-21.298C1065.205,273.133,1068.754,269.077,1068.754,269.077"/>
				<path fill="#E5D9B6" d="M1106.279,254.371c0,0,0.508,5.578-3.551,6.085c-4.058,0.508-11.662,4.058-15.722,11.663
					c-4.057,7.607-5.067,18.256-5.067,18.256l9.127,15.72l32.961,4.563l15.721-7.605c0,0,2.535-16.734-3.549-26.876
					c-6.086-10.143-11.158-12.17-18.256-15.213C1110.844,257.921,1106.279,254.371,1106.279,254.371"/>
				<path fill="#AAAD98" d="M1029.709,334.492c0,0,5.578-5.071,9.127-6.085c3.549-1.014,14.705-0.507,14.705-0.507l16.734,30.932
					l22.817,17.75l21.808,25.354c0,0-16.734-10.143-28.904-14.195c-12.17-4.059-20.791-10.65-29.412-21.805
					c-8.621-11.156-12.676-22.819-18.762-24.342c-6.086-1.521-10.146-1.521-10.146-1.521L1029.709,334.492z"/>
				<path fill="#E0D6AF" d="M1053.035,297.474c0,0,4.057,0,9.635-2.028c5.578-2.029,7.605-6.085,13.184-6.085
					c5.579,0,11.156-0.508,17.24,3.042c6.086,3.55,13.188,11.156,13.188,11.156l4.562,20.791l20.283,85.191
					c0,0-10.143,4.564-22.82-9.635c-12.676-14.198-21.805-20.284-31.438-25.862c-9.633-5.577-21.807-26.368-24.34-44.116
					C1049.993,312.18,1053.035,297.474,1053.035,297.474"/>
				<path fill="#FFFFFF" d="M1115.406,292.403c0,0,2.535-3.55,7.604-1.521c5.07,2.027,17.242,5.07,22.82,20.282
					c5.576,15.214,8.619,22.313,6.592,36.512c-2.026,14.198-4.059,13.691-1.521,25.354c2.533,11.664,2.94,30.064-3.56,34.064
					c-7.928,4.879-17.5,5-23.827-0.6c-4.296-3.801-9.127-16.733-19.269-31.438c-10.145-14.707-21.808-37.019-15.721-50.203
					c6.084-13.184,11.154-19.27,14.197-27.383c3.041-8.114,2.026-10.649,2.026-10.649L1115.406,292.403z"/>
			</g>
		</g>
		<g>
			<g>
				<path fill="#AAAD98" d="M1187.723,249.331c0,0-3.796-7.544-10.562-8.43c-6.771-0.885-20.811-3.209-32.746-15.385
					c-11.938-12.173-19.412-29.354-29.812-30.958c-10.404-1.604-28.477,12.641-33.435,17.097c-3.264,2.933-6.729,5.402-10.506,7.606
					c-2.123,1.239-6.139,3.787-8.327,1.354c-2.971-3.307-2.58-10.626-2.58-10.626l40.046-33.004c0,0,36.229-0.69,59.562,14.191
					c11.688,7.454,22.759,15.101,28.938,27.764c4.729,9.694,6.371,18.174,2.899,24.283L1187.723,249.331z"/>
				<path fill="#B7AB96" d="M1018.381,130.16c0,0,0.85,3.718,1.336,14.232c0.489,10.516-1.497,18.275-1.497,18.275l12.048,10.084
					l11.521-19.316l-15.725-29.683L1018.381,130.16z"/>
				<path fill="#E0D6AF" d="M1215.686,98.725c0,0-18.771-2.049-30.837,7.796c-4.881,3.986-9.478,8.306-14.003,12.686
					c-3.774,3.657-6.755,8.46-10.796,11.782c-3.888,3.196-6.596,6.395-10.946,8.856c-4.725,2.676-9.582,4.781-14.381,7.333
					c-8.427,4.48-18.493,10.805-28.193,11.808c-10.021,1.039-33.308-4.923-33.308-4.923s24.854-33.288,35.376-43.742
					c7.556-7.503,16.227-14.213,25.707-19.095c21.649-11.146,49.541-19.649,71.307-4.107
					C1211.165,91.088,1215.686,98.725,1215.686,98.725"/>
				<path fill="#F3E5C0" d="M1094.471,1.527c1.887,2.636-16.712,14.085-19.175,15.339c-7.734,3.938-15.421,8.697-20.267,16.124
					c-2.85,4.364-5.108,10.104-6.124,15.224c-3.007,15.191,4.918,31.29,9.377,45.568c4.479,14.339,8.956,28.679,13.435,43.02
					c0.541,1.735,1.083,3.472,1.623,5.206l3.738,8.59c0,0,33.047-19.741,38.354-50.402c4.066-23.498,11.417-46.755-1.362-68.788
					c-3.354-5.779-7.271-11.197-10.854-16.827C1098.376,6.978,1094.471,1.527,1094.471,1.527"/>
				<path fill="#D3CEBC" d="M975.285-5.878c0,0-3.81,12.383-4.646,28.073c-0.315,5.949,0.363,12.223-0.749,18.015
					c-1.245,6.496-0.754,14.506-0.646,21.141c0.068,4.406,1.521,8.423,1.771,12.787c0.408,7.101,6.843,19.245,17.322,29.247
					c10.479,9.999,22.612,18.512,30.041,26.775c7.424,8.262,11.713,16.358,12.121,23.461l0.408,7.103c0,0,7.291-33.441,2.521-62.017
					c-4.771-28.575,1.184-36.909,4.487-39.882l3.305-2.971c3.558-3.195-1.331-15.51-2.7-18.434
					c-7.656-16.311-22.452-26.586-38.146-34.264c-4.66-2.283-9.411-4.369-14.127-6.534C982.479-5.106,979.515-7.719,975.285-5.878"
					/>
				<path fill="#F1E8D6" d="M1204.799,155.313c0,0-11.561,0.434-25.109,8.626c-13.551,8.192-28.641,15.779-37.119,17.425
					c-19.114,3.712-34.706,7.466-50.799,18.7c-6.314,4.408-12.67,9.021-18.721,13.775c-7.496,5.892-14.05,13.227-23.952,14.872
					c-11.938,1.982-24.034-5.945-29.51-16.743c-2.087-4.119-3.379-9.026-1.715-13.332c0.625-1.622,1.636-3.062,2.635-4.486
					c5.438-7.732,11.01-15.604,18.618-21.216c13.322-9.822,29.151-15.288,44.705-19.9c14.417-4.276,29.146-9.098,44.066-11.263
					c18.502-2.685,35.401-4.93,47.349-2.721c11.944,2.21,16.458,6.124,20.032,7.887
					C1198.858,148.702,1204.799,155.313,1204.799,155.313"/>
				<path fill="#FFFFFF" d="M1060.639,45.875c0,0-11.844,5.001-16.462,7.295c-8.939,4.434-16.662,17.572-14.632,28.695
					c2.029,11.123,6.664,37.211,3.79,51.743c-2.873,14.532-3.062,31.555-3.062,31.555s10.946,8.696,13.978,10.956l3.025,2.261
					l9.573,7.328c0,0,18.782-17.88,28.604-44.628c9.819-26.751,18.704-55.646,1.646-70.192
					c-17.058-14.546-16.562-13.995-20.521-18.403L1060.639,45.875z"/>
				<path fill="#E5D9B6" d="M1050.798,181.19c0,0-20.521-18.403-33.397-22.762c-12.883-4.356-8.195-13.548-13.588-20.654
					c-5.392-7.104-9.183-14.651-25.364-16.038c-16.187-1.387-41.623,3.549-47.964,14.224c-6.34,10.678-12.238,22.95-12.238,22.95
					s-0.988-1.101,6.326,9.253c7.312,10.355,18.263,21.429,31.472,29.477c13.205,8.046,30.549,7.398,43.874,3.389
					c13.325-4.009,25.771-11.214,34.857-14.4C1043.859,183.442,1050.798,181.19,1050.798,181.19"/>
				<path fill="#D3CEBC" d="M1050.497,181.11c0.011,0.005,10.037,5.706,10.306,18.971c0.285,14.005-6.254,27.056-15.665,28.967
					c-5.853,1.187-11.29-1.638-19.21-8.264c-6.688-5.598-12.036-13.083-14.619-17.052c-2.895-4.439-3.165-5.42-3.165-5.424
					c-0.021-1.208,17.373-11.099,20.312-12.457C1036.28,182.225,1043.388,178.663,1050.497,181.11"/>
			</g>
		</g>
		<g>
			<g>
				<path fill="#B7AB96" d="M1044.561,730.071c0,0,2.951,1.688,10.146,7.729c7.194,6.039,11.083,12.035,11.083,12.035l13.901-1.804
					l-5.702-19.24l-28.982-7.64L1044.561,730.071z"/>
				<path fill="#E0D6AF" d="M1143.275,581.634c0,0-12.696,11.074-13.535,24.943c-0.338,5.612-0.285,11.239-0.148,16.855
					c0.113,4.689,1.463,9.55,1.197,14.207c-0.254,4.484,0.206,8.194-0.811,12.537c-1.104,4.719-2.658,9.178-3.891,13.868
					c-2.158,8.237-4.098,18.666-9.308,25.638c-5.379,7.201-23.374,18.869-23.374,18.869s-6.805-36.436-7.297-49.662
					c-0.354-9.489,0.486-19.236,3.021-28.412c5.781-20.939,17.074-44.381,40.434-49.256
					C1135.533,579.979,1143.275,581.634,1143.275,581.634"/>
				<path fill="#F3E5C0" d="M1006.203,602.356c2.871,0.354-0.868,19.479-1.535,21.854c-2.096,7.455-3.622,15.376-1.682,23.047
					c1.142,4.507,3.539,9.462,6.279,13.228c8.147,11.158,23.502,15.696,35.562,21.406c12.117,5.735,24.229,11.475,36.346,17.208
					c1.467,0.694,2.936,1.393,4.396,2.084l7.896,2.744c0,0,7.038-33.619-9.864-55.645c-12.951-16.88-23.765-35.771-45.945-40.71
					c-5.818-1.296-11.74-2.006-17.604-3.062C1012.142,603.093,1006.203,602.356,1006.203,602.356"/>
				<path fill="#D3CEBC" d="M929.259,676.06c0,0,5.82,9.987,15.606,20.025c3.71,3.807,8.234,7.154,11.36,11.388
					c3.512,4.746,9.062,9.271,13.479,13.21c2.934,2.619,6.445,4.1,9.459,6.572c4.905,4.026,16.763,7.152,29.663,6.327
					c12.896-0.827,25.819-3.636,35.73-3.511c9.909,0.127,17.814,2.21,22.724,6.237l4.901,4.025c0,0-17.522-25.009-39.151-39.163
					c-21.631-14.151-23.496-23.098-23.447-27.062l0.051-3.964c0.056-4.268-10.979-8.512-13.727-9.38
					c-15.33-4.843-31.021-1.352-45.548,4.303c-4.317,1.675-8.562,3.526-12.831,5.312
					C934.115,671.809,930.609,672.173,929.259,676.06"/>
				<path fill="#F1E8D6" d="M1173.811,623.001c0,0-6.707,7.847-9.524,21.689c-2.823,13.844-6.976,28.331-11.023,34.889
					c-9.125,14.784-16.094,27.282-18.456,44.631c-0.929,6.811-1.744,13.767-2.285,20.611c-0.668,8.479,0.18,17.217-4.73,24.707
					c-5.922,9.029-18.438,12.17-28.831,9.229c-3.964-1.121-7.965-3.243-9.782-6.938c-0.688-1.395-1.021-2.93-1.35-4.442
					c-1.783-8.243-3.577-16.66-2.656-25.045c1.615-14.68,7.604-28.368,13.985-41.36c5.915-12.043,11.66-24.621,19.267-35.719
					c9.428-13.76,18.18-26.205,26.854-32.704c8.673-6.499,13.971-7.092,17.29-8.37
					C1165.881,622.899,1173.811,623.001,1173.811,623.001"/>
				<path fill="#FFFFFF" d="M1014.832,651.373c0,0-3.883,10.794-5.172,15.211c-2.5,8.548,1.449,21.558,9.973,26.953
					c8.524,5.395,28.439,18.136,36.234,28.811c7.795,10.674,18.848,21.097,18.848,21.097s12.326-1.926,15.641-2.545l3.312-0.614
					l10.598-1.851c0,0-0.364-23.137-11.975-45.756c-11.607-22.62-25.189-45.926-45.048-43.532
					c-19.856,2.392-19.196,2.396-24.482,2.328L1014.832,651.373z"/>
				<path fill="#E5D9B6" d="M1097.641,739.671c0,0-24.48,2.331-35.133,8.145c-10.646,5.812-13.844-2.817-21.765-3.581
					c-7.921-0.763-15.164-2.84-25.862,6.938c-10.699,9.778-22.848,29.45-19.68,40.063c3.17,10.615,7.648,21.911,7.648,21.911
					s-1.317-0.021,9.896,1.443c11.218,1.465,25.103,0.98,38.371-2.812c13.265-3.797,23.33-15.564,28.759-26.73
					c5.429-11.167,8.233-23.688,11.637-31.575C1094.922,745.584,1097.641,739.671,1097.641,739.671"/>
				<path fill="#D3CEBC" d="M1097.406,739.819c0.01-0.003,9.812-3.135,18.678,4.715c9.359,8.284,13.965,20.467,9.525,27.795
					c-2.764,4.558-7.902,6.417-17.039,7.604c-7.717,1.001-15.861-0.019-20.027-0.724c-4.662-0.786-5.469-1.201-5.472-1.204
					c-0.811-0.716,3.227-18.106,4.112-20.854C1089.539,749.819,1091.501,743.003,1097.406,739.819"/>
			</g>
		</g>
	</g>
	<g>
		<g>
			<g>
				<path fill="#AEA894" d="M253.979,766.545c0,0-3.694,1.754-8.762,1.93c-5.068,0.181-9.593,1.354-11.913,4.683
					c-2.319,3.328-4.802,7.776-4.802,7.776l-11.469,17.353l4.642,13.737l21.189-17.991l7.397-17.714L253.979,766.545z"/>
				<path fill="#AEA894" d="M182.493,733.426c0,0,5.372,5.6,6.381,11.244c1.01,5.648-0.389,12.09-0.389,12.09L175.3,768.588
					l-17.764-11.761c0,0,4.625-12.847,12.175-17.474C177.262,734.725,182.493,733.426,182.493,733.426"/>
				<path fill="#E5D9B6" d="M221.689,742.812c0,0-2.773,4.862-6.392,2.962c-3.617-1.901-11.888-3.337-19.564,0.583
					c-7.677,3.924-14.596,12.08-14.596,12.08l-1.499,18.114l24.436,22.586l17.246,2.746c0,0,11.647-12.278,12.452-24.08
					c0.805-11.801-2.197-16.36-6.282-22.918C223.404,748.334,221.689,742.812,221.689,742.812"/>
				<path fill="#D3CEBC" d="M253.979,766.545c0,0-3.868,17.082-3.767,25.807c0.103,8.728-8.542,25.568-14.719,31.771
					c-6.176,6.203-22.878,24.852-29.016,29.225c-6.139,4.377-12.821,7.758-16.008,12.332c-3.189,4.578-6.14,4.375-6.14,4.375
					l2.606-24.139l24.224-35.656c0,0,19.136-7.062,25.767-14.805c6.63-7.742,8.154-13.479,10.8-19.051
					C250.372,770.832,253.979,766.545,253.979,766.545"/>
				<path fill="#AAAD98" d="M113.062,764.775c0,0,7.475-0.974,10.967,0.227c3.491,1.197,12.355,7.99,12.355,7.99l-3.952,34.945
					l8.576,27.606l3.396,33.271c0,0-7.932-17.892-15.6-28.177c-7.665-10.286-10.969-20.623-11.666-34.702
					c-0.696-14.08,2.645-25.972-1.479-30.695c-4.123-4.729-7.451-7.047-7.451-7.047L113.062,764.775z"/>
				<path fill="#E0D6AF" d="M153.362,747.738c0,0,3.329,2.317,9.065,3.846c5.737,1.523,9.719-0.646,14.296,2.543
					c4.577,3.189,9.444,5.961,12.406,12.352c2.964,6.396,4.44,16.691,4.44,16.691l-8.14,19.668l-32.059,81.494
					c0,0-10.931-2.055-13.216-20.951c-2.283-18.896-6.294-29.104-11.011-39.19c-4.717-10.082-2.817-34.101,5.249-50.109
					C142.458,758.066,153.362,747.738,153.362,747.738"/>
				<path fill="#FFFFFF" d="M207.436,779.234c0,0,4.11-1.463,7.111,3.1c3.002,4.562,11.249,14.018,7.128,29.688
					c-4.121,15.675-5.683,23.236-15.464,33.729c-9.78,10.488-11.156,8.914-15.742,19.934c-4.588,11.021-14.774,26.354-22.394,25.919
					c-9.294-0.527-17.217-5.9-19.207-14.111c-1.352-5.574,2.078-18.947,2.163-36.812c0.086-17.862,3.271-42.84,15.802-50.178
					c12.528-7.338,20.169-9.432,27.304-14.35c7.133-4.918,7.751-7.578,7.751-7.578L207.436,779.234z"/>
			</g>
		</g>
		<g>
			<g>
				<path fill="#FFFFFF" d="M304.686,735.121c0,0-28.975,27.162-20.119,60.227c8.856,33.065,19.687,40.967,31.312,49.238
					c11.627,8.271,30.604,13.182,30.604,13.182s9.312-15.973,6.687-24.912c-2.628-8.938-8.24-38.569-17.472-58.291
					c-9.231-19.718-11.621-20.819-19.27-27.254C308.784,740.877,304.686,735.121,304.686,735.121"/>
				<path fill="#E0D6AF" d="M347.838,774.954c0,0,11.551,31.413,11.115,42.798c-0.438,11.387-0.323,27.855-5.228,34.281
					c-4.897,6.423-8.817,6.545-8.817,6.545s-3.541-13.229-5.612-29.635c-2.072-16.409-4.639-23.392-1.508-36.429
					c3.13-13.039,4.789-22.891,4.789-22.891L347.838,774.954z"/>
			</g>
		</g>
		<g>
			<g>
				<path fill="#AAAD98" d="M663.685,796.049c0,0-7.24-2.072-11.92,1.832c-4.675,3.904-14.688,11.707-29.896,12.176
					c-15.206,0.472-30.996-5.021-38.34,0.832c-7.349,5.855-8.933,26.324-9.008,32.271c-0.052,3.916-0.525,7.682-1.363,11.494
					c-0.475,2.141-1.229,6.313-4.148,6.278c-3.967-0.053-8.531-4.733-8.531-4.733l2.571-46.23c0,0,21.459-24.18,45.333-30.481
					c11.959-3.158,23.671-5.795,35.715-2.191c9.222,2.768,15.774,6.814,17.685,12.785L663.685,796.049z"/>
				<path fill="#E0D6AF" d="M581.806,686.615c0,0-12.693,11.074-13.536,24.94c-0.338,5.613-0.282,11.238-0.146,16.857
					c0.113,4.688,1.463,9.549,1.198,14.207c-0.254,4.481,0.206,8.194-0.812,12.537c-1.103,4.719-2.659,9.178-3.888,13.869
					c-2.158,8.233-4.098,18.666-9.31,25.637c-5.381,7.201-23.375,18.869-23.375,18.869s-6.804-36.438-7.298-49.662
					c-0.352-9.49,0.489-19.238,3.024-28.412c5.782-20.939,17.074-44.381,40.434-49.256
					C574.062,684.961,581.806,686.615,581.806,686.615"/>
				<path fill="#F3E5C0" d="M444.733,707.338c2.867,0.357-0.869,19.48-1.535,21.855c-2.099,7.455-3.623,15.377-1.685,23.047
					c1.144,4.508,3.538,9.463,6.282,13.225c8.147,11.162,23.5,15.699,35.562,21.41c12.113,5.734,24.229,11.471,36.346,17.207
					c1.466,0.695,2.932,1.391,4.396,2.084l7.896,2.744c0,0,7.038-33.619-9.864-55.646c-12.954-16.879-23.765-35.768-45.948-40.709
					c-5.816-1.297-11.738-2.006-17.602-3.061C450.671,708.074,444.733,707.338,444.733,707.338"/>
				<path fill="#D3CEBC" d="M367.789,781.041c0,0,5.82,9.986,15.604,20.025c3.713,3.807,8.238,7.151,11.364,11.387
					c3.509,4.746,9.062,9.27,13.479,13.211c2.933,2.619,6.442,4.096,9.459,6.572c4.902,4.022,16.762,7.149,29.663,6.326
					c12.896-0.826,25.816-3.638,35.73-3.513c9.909,0.127,17.814,2.209,22.72,6.238l4.905,4.027c0,0-17.523-25.013-39.152-39.164
					c-21.632-14.152-23.496-23.101-23.446-27.064l0.05-3.965c0.054-4.264-10.979-8.508-13.728-9.377
					c-15.33-4.842-31.021-1.354-45.55,4.301c-4.314,1.674-8.559,3.529-12.831,5.312
					C372.646,776.789,369.139,777.154,367.789,781.041"/>
				<path fill="#F1E8D6" d="M612.341,727.982c0,0-6.708,7.846-9.528,21.688c-2.819,13.844-6.973,28.33-11.021,34.889
					c-9.125,14.783-16.094,27.281-18.455,44.634c-0.93,6.811-1.746,13.766-2.287,20.608c-0.67,8.48,0.178,17.217-4.729,24.707
					c-5.924,9.031-18.438,12.17-28.831,9.23c-3.964-1.121-7.966-3.244-9.782-6.939c-0.688-1.391-1.021-2.926-1.35-4.439
					c-1.783-8.243-3.577-16.659-2.656-25.046c1.615-14.681,7.604-28.367,13.984-41.359c5.916-12.043,11.66-24.621,19.268-35.72
					c9.428-13.762,18.18-26.204,26.854-32.702c8.675-6.5,13.974-7.094,17.289-8.371
					C604.411,727.881,612.341,727.982,612.341,727.982"/>
				<path fill="#FFFFFF" d="M453.362,756.354c0,0-3.886,10.798-5.171,15.214c-2.5,8.549,1.446,21.559,9.972,26.95
					c8.524,5.398,28.438,18.14,36.235,28.812c7.794,10.674,18.847,21.094,18.847,21.094s12.326-1.922,15.64-2.543l3.314-0.615
					l10.597-1.848c0,0-0.368-23.137-11.975-45.756c-11.608-22.621-25.189-45.926-45.048-43.533
					c-19.856,2.389-19.196,2.396-24.482,2.328L453.362,756.354z"/>
			</g>
		</g>
		<g>
			<g>
				<path fill="#FFFFFF" d="M779.392,749.637c0,0-37.594-12.811-62.613,10.545c-25.024,23.356-26.909,36.631-28.748,50.779
					c-1.838,14.15,2.747,33.209,2.747,33.209s18.477,0.715,25.133-5.805c6.654-6.521,30.175-25.402,43.242-42.817
					c13.062-17.415,12.918-20.044,15.001-29.812C776.235,755.959,779.392,749.637,779.392,749.637"/>
			</g>
		</g>
		<g>
			<g>
				<path fill="#AEA894" d="M915.358,721.864c0,0-2.028,3.55-6.087,6.592c-4.059,3.043-7.101,6.592-7.101,10.649
					c0,4.057,0.507,9.128,0.507,9.128l0.51,20.791l11.66,8.617l7.103-26.876l-4.06-18.763L915.358,721.864z"/>
				<path fill="#AEA894" d="M837.771,735.556c0,0,7.604,1.521,11.662,5.578c4.06,4.06,6.595,10.145,6.595,10.145l-4.06,17.239
					l-21.298,0.509c0,0-3.55-13.187,0-21.298C834.223,739.612,837.771,735.556,837.771,735.556"/>
				<path fill="#E5D9B6" d="M875.298,720.85c0,0,0.507,5.578-3.551,6.085c-4.055,0.511-11.662,4.061-15.719,11.663
					c-4.06,7.607-5.07,18.256-5.07,18.256l9.127,15.723l32.961,4.562l15.72-7.604c0,0,2.536-16.734-3.549-26.876
					c-6.086-10.146-11.157-12.17-18.256-15.213S875.298,720.85,875.298,720.85"/>
				<path fill="#D3CEBC" d="M915.358,721.864c0,0,6.592,16.227,11.659,23.326c5.071,7.1,7.607,25.858,6.087,34.479
					c-1.521,8.62-4.562,33.468-7.101,40.567c-2.535,7.098-6.085,13.688-6.085,19.27s-2.536,7.103-2.536,7.103l-11.662-21.302
					l-0.508-43.103c0,0,11.663-16.733,12.678-26.876c1.018-10.143-1.015-15.72-2.025-21.805
					C914.851,727.442,915.358,721.864,915.358,721.864"/>
				<path fill="#E0D6AF" d="M822.053,763.953c0,0,4.061,0,9.639-2.028c5.575-2.028,7.604-6.085,13.184-6.085
					s11.156-0.508,17.24,3.042c6.086,3.55,13.186,11.156,13.186,11.156l4.564,20.791l20.283,85.188c0,0-10.146,4.564-22.82-9.635
					c-12.676-14.197-21.805-20.283-31.439-25.858c-9.634-5.578-21.805-26.369-24.34-44.116
					C819.01,778.659,822.053,763.953,822.053,763.953"/>
				<path fill="#FFFFFF" d="M884.425,758.882c0,0,2.535-3.55,7.606-1.521c5.068,2.024,17.242,5.067,22.817,20.279
					c5.577,15.217,8.62,22.313,6.595,36.514c-2.028,14.197-4.061,13.688-1.521,25.354c2.535,11.664,2.942,30.066-3.558,34.066
					c-7.931,4.879-17.5,5-23.827-0.603c-4.296-3.801-9.127-16.729-19.271-31.438c-10.142-14.707-21.806-37.021-15.72-50.203
					c6.084-13.184,11.156-19.271,14.199-27.383c3.041-8.114,2.026-10.649,2.026-10.649L884.425,758.882z"/>
			</g>
		</g>
	</g>
	<g>
		<path fill="#AAAD98" d="M328.274,617.831c0,0-3.799-7.543-10.565-8.43c-6.771-0.888-20.808-3.209-32.746-15.388
			c-11.939-12.172-19.412-29.354-29.814-30.957c-10.405-1.604-28.475,12.644-33.433,17.099c-3.264,2.934-6.729,5.399-10.506,7.604
			c-2.123,1.238-6.139,3.787-8.327,1.354c-2.971-3.31-2.58-10.627-2.58-10.627l40.046-33.004c0,0,36.227-0.689,59.56,14.188
			c11.688,7.455,22.759,15.104,28.938,27.764c4.729,9.695,6.371,18.177,2.899,24.283L328.274,617.831z"/>
		<path fill="#B7AB96" d="M158.933,498.661c0,0,0.85,3.717,1.336,14.229c0.489,10.519-1.497,18.275-1.497,18.275l12.048,10.084
			l11.521-19.315l-15.725-29.685L158.933,498.661z"/>
		<path fill="#E0D6AF" d="M356.237,467.226c0,0-18.771-2.049-30.837,7.8c-4.884,3.983-9.479,8.305-14.003,12.686
			c-3.777,3.656-6.755,8.459-10.796,11.781c-3.888,3.197-6.596,6.395-10.946,8.854c-4.725,2.679-9.582,4.781-14.381,7.332
			c-8.427,4.48-18.493,10.808-28.196,11.812c-10.02,1.039-33.305-4.924-33.305-4.924s24.854-33.287,35.376-43.742
			c7.554-7.502,16.224-14.213,25.707-19.096c21.649-11.146,49.541-19.648,71.305-4.105
			C351.717,459.589,356.237,467.226,356.237,467.226"/>
		<path fill="#F3E5C0" d="M235.022,370.028c1.887,2.636-16.712,14.084-19.175,15.338c-7.734,3.938-15.421,8.696-20.267,16.125
			c-2.847,4.363-5.108,10.104-6.124,15.223c-3.007,15.191,4.918,31.291,9.377,45.568c4.479,14.34,8.956,28.68,13.435,43.02
			c0.541,1.736,1.083,3.476,1.623,5.207l3.738,8.59c0,0,33.047-19.739,38.354-50.399c4.066-23.498,11.417-46.756-1.365-68.789
			c-3.354-5.779-7.268-11.197-10.852-16.826C238.928,375.479,235.022,370.028,235.022,370.028"/>
		<path fill="#D3CEBC" d="M115.837,362.623c0,0-3.807,12.382-4.644,28.074c-0.318,5.949,0.363,12.223-0.749,18.014
			c-1.245,6.496-0.754,14.506-0.646,21.141c0.07,4.406,1.521,8.427,1.771,12.787c0.408,7.104,6.841,19.246,17.322,29.248
			c10.479,9.998,22.612,18.515,30.041,26.775c7.424,8.262,11.713,16.354,12.121,23.461l0.408,7.102c0,0,7.291-33.438,2.521-62.016
			c-4.771-28.576,1.181-36.91,4.487-39.883l3.305-2.971c3.555-3.195-1.331-15.513-2.703-18.437
			c-7.656-16.311-22.452-26.586-38.146-34.263c-4.66-2.283-9.411-4.369-14.127-6.534
			C123.029,363.395,120.066,360.782,115.837,362.623"/>
		<path fill="#F1E8D6" d="M345.351,523.812c0,0-11.561,0.435-25.106,8.628c-13.551,8.188-28.641,15.776-37.122,17.424
			c-19.114,3.713-34.706,7.467-50.796,18.701c-6.317,4.405-12.67,9.02-18.721,13.772c-7.496,5.894-14.05,13.229-23.952,14.871
			c-11.941,1.982-24.035-5.945-29.51-16.742c-2.087-4.119-3.379-9.024-1.715-13.332c0.625-1.623,1.636-3.062,2.635-4.483
			c5.438-7.732,11.01-15.605,18.618-21.22c13.322-9.819,29.151-15.285,44.705-19.897c14.417-4.275,29.146-9.101,44.067-11.262
			c18.501-2.688,35.403-4.933,47.348-2.724c11.945,2.209,16.458,6.123,20.032,7.889C339.41,517.202,345.351,523.812,345.351,523.812
			"/>
		<path fill="#FFFFFF" d="M201.19,414.376c0,0-11.844,5.002-16.462,7.295c-8.942,4.437-16.662,17.572-14.632,28.695
			c2.029,11.123,6.664,37.211,3.79,51.744c-2.873,14.528-3.062,31.555-3.062,31.555s10.949,8.695,13.978,10.955l3.025,2.262
			l9.573,7.328c0,0,18.785-17.881,28.604-44.629c9.819-26.75,18.704-55.646,1.646-70.191c-17.055-14.547-16.56-13.993-20.52-18.401
			L201.19,414.376z"/>
		<path fill="#E5D9B6" d="M191.35,549.69c0,0-20.521-18.402-33.4-22.765c-12.88-4.354-8.195-13.547-13.585-20.651
			c-5.392-7.104-9.183-14.65-25.367-16.037c-16.184-1.39-41.624,3.549-47.962,14.223c-6.339,10.678-12.24,22.951-12.24,22.951
			s-0.988-1.104,6.326,9.252c7.316,10.354,18.263,21.43,31.472,29.477c13.205,8.048,30.549,7.398,43.874,3.392
			c13.325-4.012,25.772-11.213,34.857-14.4C184.411,551.942,191.35,549.69,191.35,549.69"/>
		<path fill="#D3CEBC" d="M191.049,549.61c0.011,0.006,10.037,5.707,10.306,18.971c0.285,14.006-6.254,27.057-15.665,28.967
			c-5.853,1.188-11.29-1.637-19.21-8.264c-6.688-5.601-12.036-13.082-14.619-17.051c-2.895-4.439-3.165-5.423-3.165-5.427
			c-0.023-1.209,17.373-11.1,20.31-12.457C176.832,550.726,183.939,547.163,191.049,549.61"/>
	</g>
	<g>
		<path fill="#AEA894" d="M702.981,576.447c0,0-1.326,3.868-4.74,7.617c-3.414,3.75-5.734,7.808-4.978,11.792
			c0.765,3.981,2.215,8.868,2.215,8.868l4.398,20.327l13.072,6.276l1.93-27.73l-7.506-17.667L702.981,576.447z"/>
		<path fill="#AEA894" d="M629.345,604.457c0,0,7.756,0.066,12.502,3.289c4.748,3.224,8.379,8.725,8.379,8.725l-0.747,17.697
			l-20.822,4.494c0,0-5.962-12.284-3.997-20.919C626.618,609.107,629.345,604.457,629.345,604.457"/>
		<path fill="#E5D9B6" d="M663.443,582.97c0,0,1.544,5.383-2.35,6.646c-3.887,1.26-10.689,6.175-13.25,14.403
			c-2.557,8.233-1.555,18.886-1.555,18.886l11.916,13.729l33.23-1.705l14.014-10.42c0,0-0.65-16.914-8.529-25.729
			c-7.881-8.82-13.243-9.859-20.787-11.52C668.593,585.601,663.443,582.97,663.443,582.97"/>
		<path fill="#D3CEBC" d="M702.981,576.447c0,0,9.52,14.701,15.834,20.724c6.312,6.021,12.322,23.978,12.446,32.729
			c0.123,8.753,1.798,33.729,0.642,41.178c-1.156,7.45-3.406,14.593-2.36,20.068c1.048,5.479-1.159,7.447-1.159,7.447
			l-15.448-18.729l-8.591-42.242c0,0,8.314-18.627,7.409-28.779c-0.908-10.149-3.948-15.25-6.086-21.037
			C703.53,582.021,702.981,576.447,702.981,576.447"/>
		<path fill="#AAAD98" d="M603.269,676.036c0,0,4.527-6.026,7.824-7.688c3.295-1.662,14.352-3.259,14.352-3.259l22.239,27.241
			l25.745,13.152l26.177,20.812c0,0-18.341-6.822-31.058-8.521c-12.715-1.702-22.418-6.562-32.979-15.896
			c-10.562-9.341-16.734-20.036-22.997-20.388c-6.267-0.354-10.248,0.408-10.248,0.408L603.269,676.036z"/>
		<path fill="#E0D6AF" d="M619.233,635.299c0,0,3.982-0.761,9.084-3.799c5.098-3.04,6.325-7.406,11.807-8.452
			c5.479-1.047,10.863-2.593,17.505-0.248c6.646,2.347,15.045,8.484,15.045,8.484l8.386,19.562l35.912,79.871
			c0,0-9.104,6.389-24.224-5.181c-15.116-11.568-25.225-15.831-35.735-19.503c-10.509-3.669-26.364-21.809-32.186-38.766
			C619.005,650.316,619.233,635.299,619.233,635.299"/>
		<path fill="#FFFFFF" d="M679.545,618.613c0,0,1.825-3.963,7.186-2.922c5.362,1.039,17.891,1.741,26.225,15.64
			c8.334,13.896,12.655,20.299,13.328,34.626c0.672,14.325-1.416,14.21,3.265,25.189c4.679,10.979,8.532,28.979,2.899,34.129
			c-6.871,6.277-16.251,8.192-23.52,3.883c-4.933-2.927-12.104-14.726-24.827-27.264c-12.722-12.546-28.362-32.271-24.858-46.361
			c3.502-14.09,7.342-21.021,8.807-29.562c1.465-8.54-0.006-10.841-0.006-10.841L679.545,618.613z"/>
	</g>
	<g>
		<path fill="#FFFFFF" d="M274.887,615.168c0,0-37.594-12.811-62.616,10.545c-25.024,23.356-26.909,36.631-28.748,50.779
			c-1.838,14.147,2.747,33.209,2.747,33.209s18.477,0.715,25.133-5.805c6.654-6.521,30.175-25.402,43.242-42.817
			c13.065-17.415,12.918-20.044,15.001-29.815C271.731,621.49,274.887,615.168,274.887,615.168"/>
		<path fill="#E0D6AF" d="M260.005,671.979c0,0-22.299,24.959-32.554,29.927c-10.255,4.967-24.739,12.806-32.715,11.498
			c-7.972-1.31-9.922-4.709-9.922-4.709s10.012-9.345,23.521-18.884c13.509-9.541,18.465-15.087,31.443-18.448
			c12.979-3.363,22.456-6.529,22.456-6.529L260.005,671.979z"/>
	</g>
	<g>
		<path fill="#FFFFFF" d="M966.274,244.231c0,0-31.501,24.189-25.934,57.962c5.569,33.775,15.571,42.702,26.329,52.075
			c10.759,9.373,29.164,16.121,29.164,16.121s10.837-14.983,9.099-24.136c-1.736-9.154-4.417-39.196-11.67-59.725
			c-7.253-20.528-9.521-21.862-16.501-29.012C969.786,250.363,966.274,244.231,966.274,244.231"/>
		<path fill="#E0D6AF" d="M1005.31,288.107c0,0,8.414,32.395,6.861,43.682c-1.549,11.289-3.054,27.689-8.562,33.604
			c-5.509,5.911-9.418,5.648-9.418,5.648s-2.229-13.512-2.681-30.043c-0.454-16.532-2.319-23.731,2.07-36.398
			c4.396-12.667,7.014-22.31,7.014-22.31L1005.31,288.107z"/>
	</g>
	<g>
		<path fill="#AAAD98" d="M779.167,664.3c0,0,2.597-8.035,9.151-9.944c6.556-1.908,20.068-6.354,30.007-20.216
			c9.938-13.854,14.69-31.977,24.729-35.149c10.037-3.179,30.073,8.137,35.654,11.776c3.674,2.4,7.477,4.312,11.546,5.912
			c2.287,0.898,6.646,2.806,8.438,0.062c2.43-3.726,0.924-10.896,0.924-10.896l-44.623-26.489c0,0-35.906,4.858-56.688,23.137
			c-10.409,9.151-20.181,18.401-24.352,31.86c-3.188,10.308-3.518,18.938,0.85,24.441L779.167,664.3z"/>
		<path fill="#B7AB96" d="M928.286,520.628c0,0-0.271,3.803,0.854,14.271c1.125,10.467,4.275,17.831,4.275,17.831l-10.363,11.808
			l-14.341-17.326l10.998-31.738L928.286,520.628z"/>
		<path fill="#E0D6AF" d="M728.494,519.745c0,0,18.237-4.896,31.668,2.988c5.433,3.188,10.636,6.756,15.777,10.395
			c4.291,3.035,7.97,7.326,12.472,9.99c4.331,2.562,7.496,5.311,12.172,7.078c5.078,1.922,10.201,3.26,15.334,5.047
			c9.012,3.139,19.928,7.848,29.67,7.354c10.061-0.506,32.16-9.959,32.16-9.959s-29.653-29.094-41.65-37.813
			c-8.612-6.262-18.207-11.564-28.326-14.938c-23.1-7.703-51.964-11.84-71.094,6.853
			C731.794,511.507,728.494,519.745,728.494,519.745"/>
		<path fill="#F3E5C0" d="M833.414,405.149c-1.461,2.893,18.67,11.358,21.296,12.225c8.246,2.707,16.569,6.234,22.494,12.834
			c3.479,3.877,6.594,9.203,8.381,14.107c5.295,14.553-0.073,31.674-2.296,46.467c-2.233,14.854-4.464,29.711-6.695,44.565
			c-0.269,1.802-0.539,3.601-0.808,5.396l-2.381,9.061c0,0-35.681-14.455-45.613-43.938c-7.613-22.603-18.434-44.459-9.173-68.188
			c2.43-6.225,5.469-12.178,8.148-18.289C830.389,411.134,833.414,405.149,833.414,405.149"/>
		<path fill="#D3CEBC" d="M950.062,379.598c0,0,5.655,11.656,8.885,27.034c1.226,5.83,1.511,12.135,3.496,17.688
			c2.224,6.229,2.964,14.221,3.873,20.795c0.604,4.363-0.218,8.557,0.205,12.903c0.683,7.082-3.816,20.066-12.646,31.558
			c-8.827,11.479-19.515,21.752-25.592,31.055c-6.073,9.301-9.073,17.957-8.394,25.039l0.687,7.08c0,0-12.32-31.932-11.979-60.9
			c0.347-28.969-6.812-36.295-10.532-38.727l-3.724-2.43c-4.002-2.613-1.057-15.531-0.146-18.629
			c5.068-17.291,18.121-29.709,32.457-39.696c4.256-2.969,8.631-5.757,12.961-8.619
			C943.075,381.462,945.604,378.426,950.062,379.598"/>
		<path fill="#F1E8D6" d="M747.91,574.001c0,0,11.49-1.34,26.133,4.686c14.645,6.021,30.718,11.212,39.351,11.539
			c19.457,0.746,35.439,2.07,53.062,10.711c6.918,3.394,13.898,6.978,20.604,10.75c8.312,4.677,15.908,10.925,25.945,11.031
			c12.104,0.133,22.843-9.551,26.604-21.059c1.432-4.394,1.959-9.439-0.348-13.438c-0.863-1.508-2.085-2.776-3.29-4.031
			c-6.557-6.809-13.268-13.733-21.645-18.116c-14.668-7.668-31.146-10.648-47.225-12.826c-14.9-2.021-30.193-4.533-45.271-4.392
			c-18.694,0.179-35.741,0.546-47.207,4.558c-11.467,4.01-15.327,8.565-18.59,10.854C752.769,566.56,747.91,574.001,747.91,574.001"
			/>
		<path fill="#FFFFFF" d="M873.632,443.8c0,0,12.47,3.131,17.385,4.691c9.518,3.012,19.153,14.813,18.852,26.119
			c-0.305,11.301-0.896,37.791,4.171,51.715c5.061,13.92,7.852,30.715,7.852,30.715s-9.487,10.268-12.137,12.965l-2.645,2.697
			l-8.343,8.705c0,0-21.299-14.795-35.094-39.729c-13.795-24.934-26.996-52.131-12.362-69.112
			c14.631-16.984,14.226-16.363,17.465-21.326L873.632,443.8z"/>
		<path fill="#E5D9B6" d="M904.057,576.017c0,0,17.468-21.323,29.524-27.604c12.062-6.275,6.027-14.641,10.267-22.49
			c4.241-7.844,6.833-15.883,22.615-19.729c15.782-3.849,41.677-2.859,49.573,6.719c7.896,9.582,15.604,20.809,15.604,20.809
			s0.812-1.237-4.836,10.111c-5.646,11.354-14.77,23.971-26.592,33.943c-11.819,9.973-29.058,11.981-42.84,10.061
			s-27.188-7.139-36.65-8.896C911.258,577.181,904.057,576.017,904.057,576.017"/>
		<path fill="#D3CEBC" d="M904.341,575.892c-0.009,0.011-9.045,7.177-7.281,20.322c1.86,13.885,10.318,25.783,19.911,26.23
			c5.967,0.276,10.907-3.347,17.723-11.105c5.754-6.555,9.894-14.77,11.839-19.086c2.182-4.83,2.299-5.84,2.298-5.844
			c-0.161-1.199-18.866-8.312-21.979-9.205C918.562,574.817,910.993,572.384,904.341,575.892"/>
	</g>
	<g>
		<path fill="#AAAD98" d="M591.882,408.52c0,0-5.312-6.562-12.117-5.986c-6.803,0.574-21.014,1.288-35.268-8.07
			c-14.254-9.355-25.209-24.555-35.715-23.91c-10.508,0.646-25.135,18.407-29.033,23.814c-2.565,3.561-5.427,6.709-8.648,9.667
			c-1.811,1.661-5.19,5.006-7.849,3.093c-3.604-2.599-4.78-9.835-4.78-9.835l32.112-40.765c0,0,35.252-8.377,61.216,1.203
			c13.007,4.799,25.449,9.917,34.181,20.976c6.683,8.469,10.093,16.401,7.995,23.112L591.882,408.52z"/>
		<path fill="#B7AB96" d="M401.073,328.083c0,0,1.621,3.451,4.332,13.623c2.714,10.171,2.423,18.176,2.423,18.176l13.917,7.292
			l7.147-21.324l-21.677-25.661L401.073,328.083z"/>
		<path fill="#E0D6AF" d="M587.182,255.412c0,0-18.775,1.99-28.475,14.176c-3.922,4.933-7.494,10.13-10.984,15.373
			c-2.914,4.375-4.803,9.702-8.045,13.808c-3.119,3.951-5.085,7.65-8.812,10.982c-4.047,3.619-8.347,6.709-12.493,10.222
			c-7.282,6.17-15.773,14.49-25.041,17.534c-9.57,3.146-33.59,2.271-33.59,2.271s17.208-37.811,25.266-50.264
			c5.786-8.937,12.831-17.338,21.062-24.124c18.781-15.495,44.229-29.735,68.801-19.175
			C581.14,248.912,587.182,255.412,587.182,255.412"/>
		<path fill="#F3E5C0" d="M448.071,186.212c2.401,2.174-13.335,17.316-15.478,19.065c-6.72,5.492-13.219,11.778-16.375,20.065
			c-1.854,4.869-2.843,10.959-2.747,16.177c0.292,15.483,11.459,29.53,18.854,42.532c7.426,13.06,14.85,26.12,22.272,39.179
			c0.897,1.582,1.796,3.163,2.693,4.743l5.479,7.599c0,0,28.094-26.317,26.761-57.405c-1.023-23.825,1.214-48.114-15.96-66.925
			c-4.506-4.934-9.482-9.396-14.185-14.135C453.046,190.708,448.071,186.212,448.071,186.212"/>
		<path fill="#D3CEBC" d="M330.036,204.319c0,0-1.087,12.909,1.432,28.418c0.954,5.881,2.954,11.866,3.102,17.762
			c0.165,6.612,2.348,14.334,3.861,20.794c1.005,4.291,3.278,7.908,4.45,12.118c1.909,6.852,10.777,17.351,23.146,24.896
			c12.363,7.541,26.028,13.28,35.047,19.775c9.011,6.495,14.923,13.493,16.833,20.347l1.909,6.853c0,0,0.014-34.227-10.726-61.134
			c-10.736-26.908-6.692-36.317-4.096-39.925l2.597-3.605c2.794-3.878-4.599-14.872-6.561-17.438
			c-10.949-14.309-27.592-21.203-44.562-25.368c-5.039-1.24-10.125-2.268-15.19-3.381
			C337.228,203.544,333.777,201.621,330.036,204.319"/>
		<path fill="#F1E8D6" d="M588.576,313.021c0,0-11.204,2.882-22.701,13.769c-11.499,10.886-24.63,21.509-32.568,24.919
			c-17.888,7.692-32.322,14.676-45.655,29.075c-5.235,5.651-10.464,11.508-15.363,17.438c-6.072,7.353-10.916,15.911-20.242,19.624
			c-11.247,4.479-24.75-0.695-32.395-10.085c-2.915-3.581-5.224-8.103-4.514-12.66c0.269-1.722,0.947-3.344,1.621-4.943
			c3.669-8.712,7.44-17.59,13.684-24.69c10.929-12.431,25.231-21.136,39.448-28.951c13.181-7.243,26.544-15.087,40.665-20.375
			c17.51-6.558,33.545-12.345,45.688-12.726c12.143-0.381,17.385,2.483,21.253,3.447
			C581.365,307.824,588.576,313.021,588.576,313.021"/>
		<path fill="#FFFFFF" d="M424.442,236.74c0,0-10.513,7.406-14.535,10.628c-7.795,6.233-12.544,20.713-8.195,31.15
			c4.348,10.437,14.424,34.943,14.706,49.755c0.283,14.81,3.718,31.484,3.718,31.484s12.548,6.168,15.987,7.732l3.437,1.567
			l10.913,5.125c0,0,14.557-21.466,18.46-49.69c3.907-28.227,6.444-58.351-13.314-68.937c-19.758-10.587-19.157-10.155-23.963-13.62
			L424.442,236.74z"/>
		<path fill="#E5D9B6" d="M443.599,371.052c0,0-23.965-13.618-37.476-15.139c-13.512-1.517-10.889-11.495-17.667-17.293
			c-6.778-5.794-12.087-12.363-28.197-10.276c-16.107,2.087-39.917,12.318-43.841,24.096c-3.924,11.782-7.08,25.029-7.08,25.029
			s-1.2-0.866,8.149,7.695c9.351,8.562,22.399,17.057,37.02,22.11c14.614,5.056,31.423,0.731,43.591-6.021
			s22.802-16.437,30.999-21.483C437.298,374.728,443.599,371.052,443.599,371.052"/>
		<path fill="#D3CEBC" d="M443.288,371.038c0.012,0.003,11.021,3.442,14.104,16.345c3.26,13.625-0.354,27.771-9.146,31.636
			c-5.466,2.404-11.38,0.804-20.527-3.987c-7.726-4.048-14.543-10.227-17.911-13.556c-3.771-3.723-4.245-4.623-4.246-4.627
			c-0.277-1.177,14.616-14.54,17.196-16.491C429.633,375.15,435.821,370.158,443.288,371.038"/>
	</g>
	<g>
		<path fill="#AEA894" d="M704.794,107.568c0,0-3.267,2.459-8.196,3.646c-4.93,1.19-9.128,3.246-10.73,6.974
			c-1.604,3.726-3.146,8.583-3.146,8.583l-7.758,19.296l7.301,12.531l17.152-21.876l3.696-18.836L704.794,107.568z"/>
		<path fill="#AEA894" d="M628.121,89.451c0,0,6.384,4.406,8.506,9.737c2.121,5.331,2.041,11.923,2.041,11.923l-10.545,14.229
			l-19.762-7.959c0,0,1.955-13.512,8.426-19.562C623.256,91.772,628.121,89.451,628.121,89.451"/>
		<path fill="#E5D9B6" d="M668.402,90.79c0,0-1.741,5.324-5.668,4.184c-3.928-1.138-12.316-0.886-19.054,4.494
			c-6.731,5.382-11.879,14.761-11.879,14.761l2.165,18.048l28.467,17.23l17.446-0.767c0,0,8.949-14.366,7.373-26.089
			c-1.578-11.723-5.437-15.591-10.75-21.193C671.188,95.856,668.402,90.79,668.402,90.79"/>
		<path fill="#D3CEBC" d="M704.794,107.568c0,0-0.364,17.511,1.483,26.037c1.85,8.526-3.243,26.761-8.054,34.077
			c-4.808,7.315-17.432,28.933-22.565,34.45c-5.139,5.517-11.005,10.168-13.211,15.29c-2.207,5.123-5.142,5.518-5.142,5.518
			l-2.282-24.174l16.584-39.789c0,0,17.332-10.754,22.272-19.668c4.944-8.913,5.287-14.84,6.763-20.828
			C702.121,112.49,704.794,107.568,704.794,107.568"/>
		<path fill="#AAAD98" d="M566.383,134.085c0,0,7.129-2.452,10.791-1.979c3.66,0.473,13.705,5.353,13.705,5.353l3.133,35.028
			l13.938,25.328l9.996,31.912c0,0-11.356-15.936-20.934-24.475c-9.569-8.542-14.881-18.006-18.387-31.661
			c-3.504-13.657-2.615-25.973-7.604-29.779c-4.985-3.803-8.715-5.407-8.715-5.407L566.383,134.085z"/>
		<path fill="#E0D6AF" d="M602.449,109.315c0,0,3.727,1.604,9.649,1.947c5.928,0.343,9.396-2.579,14.519-0.372
			c5.123,2.206,10.447,3.946,14.631,9.612c4.185,5.669,7.697,15.463,7.697,15.463l-4.033,20.9l-15.071,86.266
			c0,0-11.12,0.181-17.146-17.876c-6.025-18.054-12.002-27.255-18.646-36.189c-6.642-8.933-9.596-32.843-4.9-50.146
			C593.838,121.617,602.449,109.315,602.449,109.315"/>
		<path fill="#FFFFFF" d="M661.74,129.33c0,0,3.729-2.257,7.588,1.613c3.854,3.868,13.829,11.478,12.936,27.654
			c-0.896,16.18-0.91,23.904-8.39,36.141c-7.479,12.238-9.144,10.97-11.427,22.685c-2.285,11.716-9.191,28.779-16.743,29.882
			c-9.211,1.345-18.05-2.331-21.646-9.977c-2.439-5.19-1.763-18.979-5.261-36.496c-3.496-17.519-5.383-42.625,5.422-52.326
			c10.803-9.701,17.869-13.284,23.873-19.532c6.004-6.25,6.075-8.979,6.075-8.979L661.74,129.33z"/>
	</g>
	<g>
		<path fill="#FFFFFF" d="M423.625,442.004c0,0-37.165,14.007-41.635,47.942c-4.475,33.938,2.509,45.384,10.085,57.475
			c7.576,12.092,23.229,23.891,23.229,23.891s14.721-11.19,15.711-20.456c0.992-9.266,7.147-38.793,6.164-60.543
			c-0.981-21.746-2.768-23.684-7.372-32.552C425.207,448.891,423.625,442.004,423.625,442.004"/>
		<path fill="#E0D6AF" d="M448.249,495.319c0,0-1.349,33.439-6.11,43.793c-4.758,10.354-10.958,25.609-17.943,29.673
			c-6.984,4.058-10.652,2.672-10.652,2.672s1.791-13.576,6.156-29.528c4.36-15.952,4.665-23.384,12.543-34.229
			c7.884-10.85,13.186-19.314,13.186-19.314L448.249,495.319z"/>
	</g>
	<g>
		<path fill="#AEA894" d="M731.453,316.953c0,0-1.326,3.868-4.74,7.617c-3.414,3.75-5.734,7.808-4.975,11.792
			c0.762,3.984,2.212,8.871,2.212,8.871l4.398,20.327l13.072,6.276l1.933-27.73l-7.509-17.667L731.453,316.953z"/>
		<path fill="#AEA894" d="M657.816,344.963c0,0,7.756,0.066,12.502,3.289c4.748,3.224,8.379,8.725,8.379,8.725l-0.748,17.697
			l-20.824,4.494c0,0-5.962-12.284-3.997-20.919C655.09,349.613,657.816,344.963,657.816,344.963"/>
		<path fill="#E5D9B6" d="M691.915,323.476c0,0,1.544,5.383-2.347,6.643c-3.89,1.26-10.692,6.175-13.25,14.406
			c-2.56,8.233-1.558,18.883-1.558,18.883l11.916,13.729l33.231-1.705l14.013-10.42c0,0-0.647-16.914-8.528-25.732
			c-7.882-8.82-13.241-9.859-20.785-11.517C697.064,326.106,691.915,323.476,691.915,323.476"/>
		<path fill="#D3CEBC" d="M731.453,316.953c0,0,9.52,14.701,15.834,20.724c6.312,6.021,12.325,23.975,12.449,32.728
			c0.123,8.753,1.798,33.73,0.639,41.178c-1.156,7.45-3.406,14.593-2.36,20.069c1.048,5.479-1.159,7.446-1.159,7.446l-15.446-18.729
			l-8.59-42.242c0,0,8.312-18.627,7.406-28.779c-0.905-10.152-3.945-15.25-6.086-21.037
			C732.002,322.527,731.453,316.953,731.453,316.953"/>
		<path fill="#AAAD98" d="M631.74,416.542c0,0,4.524-6.026,7.824-7.688c3.295-1.659,14.349-3.259,14.349-3.259l22.242,27.241
			l25.745,13.152l26.176,20.812c0,0-18.34-6.821-31.06-8.521c-12.715-1.702-22.418-6.562-32.979-15.896
			c-10.562-9.341-16.734-20.036-22.997-20.388c-6.264-0.354-10.248,0.408-10.248,0.408L631.74,416.542z"/>
		<path fill="#E0D6AF" d="M647.705,375.805c0,0,3.985-0.761,9.084-3.799c5.098-3.04,6.328-7.406,11.807-8.452
			c5.48-1.047,10.863-2.593,17.505-0.248c6.646,2.346,15.048,8.484,15.048,8.484l8.386,19.563l35.912,79.869
			c0,0-9.107,6.389-24.227-5.181c-15.116-11.568-25.224-15.831-35.732-19.503c-10.512-3.669-26.365-21.806-32.188-38.763
			C647.477,390.822,647.705,375.805,647.705,375.805"/>
		<path fill="#FFFFFF" d="M708.017,359.119c0,0,1.825-3.963,7.188-2.922c5.362,1.039,17.888,1.744,26.222,15.64
			s12.655,20.3,13.328,34.626c0.672,14.325-1.416,14.21,3.267,25.189c4.68,10.979,8.53,28.979,2.897,34.129
			c-6.871,6.277-16.251,8.192-23.517,3.883c-4.936-2.927-12.104-14.723-24.827-27.264c-12.725-12.543-28.365-32.271-24.861-46.361
			c3.502-14.09,7.342-21.02,8.807-29.561c1.468-8.54-0.006-10.841-0.006-10.841L708.017,359.119z"/>
	</g>
	<g>
		<path fill="#AEA894" d="M300.295,203.528c0,0-4.569,1.625-10.572,1.223c-6.002-0.401-11.484,0.438-14.624,4.088
			c-3.138,3.65-6.604,8.603-6.604,8.603l-15.624,19.094l3.822,16.774l27.174-18.684l10.863-20.014L300.295,203.528z"/>
		<path fill="#AEA894" d="M219.917,155.834c0,0,5.665,7.251,6.178,14.038c0.511,6.789-1.917,14.223-1.917,14.223l-16.983,12.37
			l-19.55-16.017c0,0,7.004-14.604,16.473-19.157C213.585,156.735,219.917,155.834,219.917,155.834"/>
		<path fill="#E5D9B6" d="M265.045,171.629c0,0-3.859,5.41-7.9,2.727c-4.041-2.678-13.631-5.369-23.162-1.666
			c-9.533,3.706-18.682,12.5-18.682,12.5l-3.947,21.199l26.118,29.599l20.023,5.319c0,0,15.225-13.092,17.597-26.923
			c2.37-13.831-0.624-19.576-4.656-27.805C266.404,178.354,265.045,171.629,265.045,171.629"/>
		<path fill="#D3CEBC" d="M300.295,203.528c0,0-6.62,19.694-7.551,30.004c-0.929,10.307-13.159,29.145-21.196,35.723
			c-8.037,6.579-29.993,26.576-37.765,31.001c-7.771,4.423-16.063,7.61-20.377,12.625c-4.314,5.018-7.773,4.425-7.773,4.425
			l5.983-28.178l32.882-39.167c0,0,23.435-6.029,32.191-14.368c8.757-8.337,11.247-14.927,15.041-21.183
			C295.525,208.153,300.295,203.528,300.295,203.528"/>
		<path fill="#AAAD98" d="M134.196,184.476c0,0,8.94-0.249,12.918,1.586c3.977,1.833,13.619,10.918,13.619,10.918l-8.873,40.769
			l6.8,33.616l0.002,39.672c0,0-7.207-22.067-15.019-35.129c-7.809-13.065-10.463-25.661-9.59-42.364
			c0.875-16.703,6.248-30.331,1.951-36.409c-4.298-6.073-7.949-9.209-7.949-9.209L134.196,184.476z"/>
		<path fill="#E0D6AF" d="M183.811,169.22c0,0,3.649,3.138,10.237,5.627c6.586,2.49,11.547,0.412,16.565,4.726
			c5.018,4.312,10.428,8.171,13.156,16.069c2.728,7.903,3.231,20.235,3.231,20.235l-11.976,22.232l-47.647,92.319
			c0,0-12.654-3.736-13.076-26.316c-0.42-22.576-3.925-35.112-8.277-47.581c-4.352-12.468,0.781-40.584,12.229-58.509
			C169.699,180.095,183.811,169.22,183.811,169.22"/>
		<path fill="#FFFFFF" d="M243.838,212.901c0,0,5.026-1.232,8.019,4.517c2.994,5.745,11.587,17.896,4.84,35.894
			c-6.751,18-9.506,26.74-22.312,37.941c-12.807,11.204-14.24,9.177-20.979,21.629c-6.741,12.454-20.609,29.323-29.55,27.895
			c-10.904-1.745-19.607-9.04-20.969-18.97c-0.924-6.743,4.733-22.11,6.983-43.183c2.254-21.074,9.019-50.164,24.69-57.317
			c15.67-7.153,24.94-8.706,33.953-13.649c9.013-4.948,10.062-8.012,10.062-8.012L243.838,212.901z"/>
	</g>
	<g>
		<path fill="#FFFFFF" d="M360.673,623.651c0,0-28.975,27.161-20.119,60.227c8.856,33.065,19.688,40.967,31.312,49.238
			c11.627,8.271,30.604,13.182,30.604,13.182s9.315-15.973,6.688-24.912c-2.628-8.938-8.24-38.569-17.474-58.291
			c-9.229-19.718-11.619-20.819-19.268-27.254C364.771,629.407,360.673,623.651,360.673,623.651"/>
		<path fill="#E0D6AF" d="M403.825,663.484c0,0,11.551,31.413,11.115,42.798c-0.438,11.387-0.323,27.854-5.228,34.28
			c-4.897,6.424-8.82,6.546-8.82,6.546s-3.541-13.229-5.609-29.638c-2.072-16.406-4.642-23.389-1.508-36.426
			c3.13-13.039,4.789-22.891,4.789-22.891L403.825,663.484z"/>
	</g>
	<g>
		<path fill="#AEA894" d="M646.436,523.788c0,0-4.659,1.417-10.666,0.733c-6.002-0.686-11.539-0.097-14.856,3.42
			c-3.316,3.514-7.025,8.32-7.025,8.32l-16.562,18.432l3.055,17.005l28.133-17.479l11.828-19.568L646.436,523.788z"/>
		<path fill="#AEA894" d="M568.021,472.196c0,0,5.344,7.538,5.543,14.37c0.194,6.835-2.586,14.179-2.586,14.179l-17.615,11.621
			l-18.865-16.98c0,0,7.708-14.327,17.417-18.451C561.627,472.807,568.021,472.196,568.021,472.196"/>
		<path fill="#E5D9B6" d="M612.559,490.146c0,0-4.123,5.242-8.053,2.362c-3.928-2.875-13.422-6.021-23.158-2.75
			c-9.731,3.272-19.321,11.669-19.321,11.669l-4.949,21.085l24.826,30.909l19.838,6.271c0,0,15.885-12.43,18.906-26.188
			c3.021-13.765,0.284-19.669-3.373-28.11C613.609,496.955,612.559,490.146,612.559,490.146"/>
		<path fill="#D3CEBC" d="M646.436,523.788c0,0-7.561,19.448-8.975,29.748c-1.414,10.298-14.561,28.626-22.928,34.851
			c-8.369,6.228-31.328,25.266-39.33,29.338c-8.002,4.079-16.471,6.891-21.031,11.72c-4.562,4.835-8.003,4.077-8.003,4.077
			l7.314-27.985l34.811-37.76c0,0,23.791-4.961,32.967-12.916c9.172-7.958,11.979-14.45,16.076-20.555
			C641.434,528.205,646.436,523.788,646.436,523.788"/>
		<path fill="#AAAD98" d="M480.693,496.934c0,0,8.979,0.17,12.883,2.195c3.904,2.023,13.156,11.586,13.156,11.586l-10.802,40.484
			l5.252,34.04l-1.845,39.8c0,0-6.202-22.473-13.43-35.941c-7.227-13.469-9.301-26.229-7.648-42.94
			c1.656-16.717,7.685-30.141,3.653-36.435c-4.027-6.297-7.542-9.612-7.542-9.612L480.693,496.934z"/>
		<path fill="#E0D6AF" d="M531.177,483.94c0,0,3.517,3.316,10.005,6.125c6.492,2.804,11.568,0.944,16.4,5.51
			c4.834,4.562,10.08,8.685,12.447,16.731c2.369,8.059,2.299,20.45,2.299,20.45l-13.049,21.745L507.179,644.9
			c0,0-12.521-4.346-11.892-27.014c0.63-22.67-2.301-35.402-6.086-48.119c-3.786-12.711,2.674-40.676,14.993-58.124
			C516.512,494.194,531.177,483.94,531.177,483.94"/>
		<path fill="#FFFFFF" d="M589.359,530.56c0,0,5.1-1.001,7.834,4.902c2.733,5.904,10.791,18.495,3.182,36.236
			s-10.779,26.382-24.148,37.021c-13.366,10.643-14.715,8.543-22.055,20.726c-7.343,12.177-22.041,28.453-30.943,26.604
			c-10.856-2.258-19.25-9.979-20.15-20.008c-0.613-6.805,5.775-21.961,9.018-42.996c3.243-21.036,11.389-49.906,27.441-56.35
			c16.052-6.444,25.423-7.569,34.693-12.111c9.271-4.541,10.469-7.566,10.469-7.566L589.359,530.56z"/>
	</g>
	<g>
		<path fill="#AEA894" d="M914.03,240.708c0,0-3.677,1.792-8.742,2.021c-5.065,0.23-9.578,1.451-11.863,4.802
			c-2.284,3.352-4.722,7.829-4.722,7.829l-11.289,17.467l4.784,13.689l21.001-18.21l7.215-17.789L914.03,240.708z"/>
		<path fill="#AEA894" d="M842.207,208.331c0,0,5.428,5.54,6.496,11.176c1.065,5.639-0.264,12.094-0.264,12.094l-13.062,11.964
			l-17.884-11.576c0,0,4.491-12.895,11.993-17.599C836.988,209.683,842.207,208.331,842.207,208.331"/>
		<path fill="#E5D9B6" d="M881.497,217.311c0,0-2.723,4.894-6.361,3.028c-3.636-1.863-11.922-3.213-19.558,0.786
			c-7.636,4.002-14.471,12.23-14.471,12.23l-1.312,18.131l24.669,22.332l17.272,2.568c0,0,11.52-12.402,12.2-24.207
			c0.686-11.809-2.364-16.34-6.52-22.853C883.27,222.816,881.497,217.311,881.497,217.311"/>
		<path fill="#D3CEBC" d="M914.03,240.708c0,0-3.692,17.121-3.5,25.845c0.19,8.722-8.277,25.654-14.393,31.922
			c-6.109,6.266-22.619,25.086-28.713,29.522c-6.093,4.441-12.737,7.89-15.88,12.497c-3.142,4.611-6.095,4.438-6.095,4.438
			l2.355-24.164l23.854-35.905c0,0,19.062-7.262,25.613-15.07c6.549-7.811,8.013-13.562,10.603-19.162
			C910.47,245.033,914.03,240.708,914.03,240.708"/>
		<path fill="#AAAD98" d="M773.102,240.396c0,0,7.468-1.048,10.973,0.114c3.503,1.16,12.438,7.861,12.438,7.861l-3.59,34.984
			l8.859,27.519l3.737,33.231c0,0-8.113-17.805-15.89-28.011c-7.771-10.207-11.182-20.508-12.023-34.58
			c-0.843-14.074,2.375-25.997-1.797-30.681c-4.172-4.686-7.521-6.969-7.521-6.969L773.102,240.396z"/>
		<path fill="#E0D6AF" d="M813.225,222.943c0,0,3.354,2.285,9.104,3.752c5.752,1.464,9.713-0.748,14.321,2.395
			c4.607,3.143,9.506,5.863,12.53,12.223c3.031,6.362,4.613,16.645,4.613,16.645l-7.938,19.751L814.64,359.53
			c0,0-10.952-1.942-13.432-20.813c-2.479-18.873-6.596-29.041-11.416-39.078c-4.82-10.033-3.17-34.067,4.731-50.161
			C802.427,233.383,813.225,222.943,813.225,222.943"/>
		<path fill="#FFFFFF" d="M867.621,253.878c0,0,4.095-1.504,7.141,3.027c3.051,4.531,11.396,13.9,7.438,29.612
			c-3.959,15.713-5.443,23.293-15.114,33.884c-9.672,10.589-11.062,9.029-15.535,20.096c-4.474,11.065-14.502,26.502-22.125,26.147
			c-9.299-0.433-17.274-5.724-19.352-13.914c-1.41-5.56,1.881-18.967,1.778-36.831c-0.098-17.865,2.829-42.871,15.283-50.337
			c12.452-7.467,20.07-9.64,27.153-14.632c7.082-4.991,7.674-7.657,7.674-7.657L867.621,253.878z"/>
	</g>
	<g>
		<path fill="#FFFFFF" d="M791.246,68.746c0,0-31.502,24.189-25.932,57.962c5.567,33.775,15.569,42.702,26.327,52.074
			c10.761,9.373,29.164,16.121,29.164,16.121s10.836-14.982,9.101-24.136c-1.738-9.154-4.416-39.196-11.67-59.726
			c-7.252-20.527-9.521-21.862-16.5-29.011C794.758,74.878,791.246,68.746,791.246,68.746"/>
		<path fill="#E0D6AF" d="M830.281,112.622c0,0,8.414,32.395,6.858,43.682c-1.549,11.289-3.055,27.689-8.562,33.604
			c-5.506,5.91-9.418,5.648-9.418,5.648s-2.228-13.512-2.678-30.044c-0.453-16.532-2.322-23.731,2.067-36.397
			c4.398-12.668,7.017-22.311,7.017-22.311L830.281,112.622z"/>
	</g>
	<g>
		<path fill="#FFFFFF" d="M411.921,92.314c0,0-31.362-6.425-48.998,14.793c-17.637,21.219-17.797,32.023-17.829,43.523
			c-0.032,11.502,5.57,26.275,5.57,26.275s14.847-1.305,19.506-7.194c4.658-5.891,21.548-23.378,30.227-38.631
			c8.681-15.253,8.297-17.339,8.969-25.364C410.039,97.69,411.921,92.314,411.921,92.314"/>
		<path fill="#E0D6AF" d="M405.792,139.252c0,0-15.295,22.223-22.991,27.234c-7.691,5.014-18.479,12.753-24.991,12.518
			c-6.507-0.235-8.409-2.757-8.409-2.757s7.057-8.486,16.891-17.487c9.833-9.002,13.23-13.939,23.267-17.948
			c10.039-4.007,17.293-7.502,17.293-7.502L405.792,139.252z"/>
	</g>
</g>
</svg>
