<?xml version="1.0" encoding="utf-8"?>
<!-- Generator: Adobe Illustrator 16.0.0, SVG Export Plug-In . SVG Version: 6.00 Build 0)  -->
<!DOCTYPE svg PUBLIC "-//W3C//DTD SVG 1.1//EN" "http://www.w3.org/Graphics/SVG/1.1/DTD/svg11.dtd">
<svg version="1.1" id="Layer_2" xmlns="http://www.w3.org/2000/svg" xmlns:xlink="http://www.w3.org/1999/xlink" x="0px" y="0px"
	 width="335px" height="323px" viewBox="172.26 -18.051 335 323" enable-background="new 172.26 -18.051 335 323"
	 xml:space="preserve">
<g>
	<g id="XMLID_1_">
		<g>
			<path fill="#2B262D" d="M430.09,174.98c-1.63,0.22-3.34,0.14-4.68-1.764c1.1-0.93,2.09-2.17,3.37-2.68
				c0.79-0.32,2.16,0.3,3.02,0.88c0.49,0.32,0.894,1.67,0.62,2.062C431.929,174.2,430.95,174.859,430.09,174.98z"/>
			<path fill="#2B262D" d="M407.13,165c4.25-5.188,6.69-5.87,11.99-3.3C414.981,162.84,411.309,163.84,407.13,165z"/>
			<path fill="#2B262D" d="M407.441,168.41c3.68-1.08,7.27-2.131,10.88-3.188c0.59,3.277-0.08,5.129-2.2,6.25
				C413.691,172.76,411.019,171.84,407.441,168.41z"/>
			<path fill="#2B262D" d="M416.55,73.15c2.98,3.08,3.58,5.648,1.36,8.75c-1.62,2.25-3.68,4.41-6.01,5.87
				c-5.19,3.26-10.69,6.06-16.054,9.04c-0.83,0.46-1.64,0.96-2.75,1.608c2.46,1.36,4.36,0.37,6.062-0.438
				c4.03-1.92,7.95-4.062,11.89-6.16c1.11-0.59,2.16-1.021,3.16,0.06c1.11,1.23,0.8,2.432-0.24,3.54
				c-0.566,0.602-1.14,1.21-1.736,1.79c-3.03,2.94-6.54,5.142-10.49,6.602c-2.8,1.04-5.66,1.93-8.49,2.92
				c-2.14,0.75-4.33,1.43-6.88,3.47c1.51,0.11,2.22,0.34,2.83,0.18c4.17-1.1,8.31-2.278,12.46-3.448c0.79-0.222,1.54-0.61,2.34-0.73
				c1.28-0.189,2.06,0.66,1.72,1.74c-0.479,1.51-1.09,3.31-2.236,4.2c-2.07,1.58-4.49,2.858-6.95,3.738
				c-4.224,1.521-8.62,2.512-12.86,3.972c-3.29,1.13-6.479,2.59-9.67,4c-0.62,0.278-1.04,1-1.188,2.229
				c6.422-1.97,12.842-3.93,19.408-5.938c1.58,2.33,1.014,4.31-0.8,5.778c-1.51,1.23-3.3,2.302-5.148,2.87
				c-4.75,1.48-9.608,2.602-14.398,3.96c-2.36,0.682-4.64,1.59-6.88,2.8c3.39,1.682,6.52-0.358,9.71-0.67
				c3.25-0.33,6.42-1.488,10.147-2.408c-1.188,4.6-4.181,6.988-8.021,8.22c-4.1,1.31-8.36,2.108-12.54,3.148
				c-2.7,0.67-5.38,1.382-8.729,2.25c3.738,1.392,3.75,1.41,9.592,0.41c3.08-0.528,6.158-1.12,9.479-1.72
				c-0.39,3.13-2.55,4.55-5.146,5.13c-3.882,0.851-7.83,1.369-11.764,1.93c-3.13,0.46-6.02,1.354-8.55,3.133
				c0.09,0.327,0.17,0.67,0.261,1.01c4.63-0.649,9.271-1.289,13.919-1.939c0.211,3.939-0.471,5.189-3.771,5.92
				c-3.72,0.82-7.521,1.341-11.3,1.88c-2.75,0.4-5.36,1.08-8.65,3.12c2.16,0.12,3.3,0.352,4.393,0.21
				c5.59-0.737,11.188-1.47,16.737-2.46c1.421-0.25,2.44-0.34,3.7,0.48c5.71,3.72,11.61,7.158,17.221,11.029
				c4.229,2.92,8.092,6.391,12.183,9.527c12.729,9.771,23.646,21.46,34.96,32.73c1.14,1.129,2.01,2.52,3.18,4.02
				c-2.739,0.75-4.21-0.8-5.75-1.92c-5.12-3.729-10.188-7.5-15.25-11.301c-1.31-0.979-2.529-2.029-4.6-2.17
				c0.51,2.461,2.14,3.57,3.688,4.711c6.69,4.949,13.37,9.91,20.091,14.81c3.312,2.41,5.803,5.32,6.723,9.802
				c-3.223-0.199-5.73-1.512-7.87-3.16c-5.12-3.959-10.021-8.199-15.021-12.318c-0.811-0.67-1.671-1.28-3.29-2.49
				c1.42,5.46,5.473,7.643,8.239,10.66c2.79,3.07,6.48,5.312,10.261,8.29c-3.938-0.3-6.641-1.688-9.027-3.83
				c-2.49-2.22-5-4.42-7.592-6.511c-0.448-0.359-1.392-0.119-2.108-0.159c0.16,0.71,0.068,1.688,0.51,2.09
				c3.91,3.603,7.91,7.09,12.29,10.979c-0.3,0.561-0.71,1.811-1.51,2.711c-1.82,2.066-3.393,2.25-5.61,0.5
				c-1.81-1.44-3.369-3.211-5.02-4.854c-0.7-0.71-1.271-1.55-2.021-2.18c-0.27-0.221-1.027-0.17-1.35,0.062
				c-0.3,0.209-0.57,0.971-0.42,1.229c1.01,1.72,2.14,3.358,3.229,5.021c-4.979,6.067-6.92,6.129-11.909-0.013
				c-1.857-2.3-3.368-4.91-4.857-7.479c-2.87-4.899-5.893-9.66-11.25-14.131c7.479,1.892,12.75,6.062,19,8.238
				c-0.261-4.697-2.301-11.396-4.16-13.81c-1.3,2.819,0.601,5.528,0.271,8.75c-8.358-3.851-16.562-7.11-23.392-12.73
				c-2.37-1.948-3.96-4.856-5.84-7.368c-0.649-0.869-1.12-1.882-1.812-3.068c-1.761,4.64,0.54,8.27,9.87,16.06
				c-3.87,0.392-7.181-0.67-10.211-2.358c-3.329-1.858-6.43-4.119-9.606-6.229c-1.28-0.85-1.263-0.88-3.394-0.58
				c2.48,4.57,9.762,9.33,17.762,11.609c-6.648,2.301-14.778,2.591-21.062,1.979c-13.7-1.34-24.22-8.51-34.029-17.317
				c-3.96-3.562-8.051-6.979-12.319-10.66c5.51-4.6,7.25-11.359,9.489-17.899c2.279-6.68,3.79-13.438,2.881-20.84
				c4.938-0.33,6.869-3.68,8.091-7.688c3.278-10.73,9.148-19.9,16.778-28.03c6.722-7.16,13.432-14.34,20.17-21.49
				c9.71-10.3,19.398-20.608,29.172-30.85c7.3-7.65,12.72-16.62,18.328-25.471c2.672-4.21,5.079-8.591,7.642-12.869
				c0.91-1.53,1.58-3.33,3.647-3.92c2.171,1.608,2.229,3.979,2.271,6.27c0.09,4.66-1.66,8.74-4.062,12.65
				c-3.857,6.29-8.42,11.97-13.88,16.92c-0.737,0.67-1.659,1.13-2.25,1.938c2.933,0.051,2.979,0.102,9.199-6.3
				c2.65-2.729,5.04-5.71,7.521-8.56c4.657,2.938,5.22,5.188,2.29,9.26c-2.96,4.1-6.74,7.35-10.94,10.14
				c-2.438,1.61-4.8,3.34-7.68,5.36c4.37,0.49,9.35-2.26,16.37-8.58c0.6,3.91-1.36,6.65-3.803,8.75
				c-4.027,3.45-8.438,6.45-12.697,9.63c-0.644,0.48-1.33,0.88-2.19,1.45c3.12,0.898,4.062,0.729,8.99-2.45
				C411.63,77.08,414.04,75.03,416.55,73.15z"/>
			<path fill="#2B262D" d="M363.58,76.68c1.59,5.238-0.48,9.67-3.13,13.898c-1.144,1.83-2.5,3.55-3.95,5.15
				c-6.25,6.898-12.47,13.84-18.88,20.6c-7.09,7.49-12.23,16.12-15.62,25.82c-0.55,1.569-0.95,3.22-1.74,4.66
				c-1.72,3.17-4.817,3.52-7.397,0.979c-3.07-3.02-4.24-6.53-3.393-10.87c1.66-8.56,5.723-15.96,11.021-22.648
				c5.47-6.91,11.12-13.722,17.17-20.12c7.47-7.91,14.07-16.392,19.688-25.69c0.69-1.13,1.42-2.25,2.2-3.318
				c0.271-0.382,0.771-0.602,1.55-1.19c1.48,2.68,1.46,5.021,0.724,7.51c-1.48,4.99-3.804,9.55-6.7,13.852
				c-6.53,9.68-13.41,19.06-22.41,26.659c-0.29,0.25-0.33,0.789-0.93,2.351C346.349,104.12,355.45,90.86,363.58,76.68z"/>
			<path fill="#2B262D" d="M350.809,46.52c-1.979,0.898-2.479-0.04-3.02-2.74C349.269,45.12,349.969,45.76,350.809,46.52z"/>
			<path fill="#2B262D" d="M314.889,70.57c3.013,1.54,4.38,5.72,3.062,10.21c-3.24-2.38-6.34-4.68-9.73-7.17
				C310.55,70.27,312.63,69.42,314.889,70.57z"/>
			<path fill="#2B262D" d="M312.34,164.721c0.08,0.209,0.28,0.479,0.22,0.607c-0.09,0.189-0.27,0.33-0.438,0.479
				c0.03-0.209,0.07-0.42,0.11-0.629C312.25,165.02,312.3,164.87,312.34,164.721z"/>
			<path fill="#2B262D" d="M311.929,165.98c0.062-0.062,0.13-0.11,0.19-0.172c-0.021,0.092-0.03,0.188-0.05,0.291L311.929,165.98z"
				/>
			<path fill="#2B262D" d="M312.071,166.1c-0.07,0.108-0.13,0.211-0.2,0.318c0.02-0.14,0.04-0.29,0.06-0.438L312.071,166.1z"/>
			<path fill="#2B262D" d="M308.49,171.9c1.18-1.801,2.26-3.65,3.38-5.48c-1.12,8.92-4.33,16.973-9.92,24.223
				c-2.94-1.473-5.66-2.843-8.551-4.291C299.47,182.46,304.6,177.811,308.49,171.9z"/>
			<path fill="#2B262D" d="M298.19,88.39c1.49,0.278,1.95,1.688,1.87,3.04c-0.09,1.38-0.5,2.738-0.771,4.1
				c-0.471,0.15-0.931,0.3-1.399,0.44c-0.801-1.021-1.899-1.932-2.311-3.092c-0.38-1.1-0.301-2.56,0.12-3.648
				C295.91,88.69,297.4,88.24,298.19,88.39z"/>
			<path fill="#2B262D" d="M288.11,110.21c1.261,3.42,1.141,5.29-0.479,5.512c-2.83,0.38-2.38-2.422-3.949-4.07
				C285.73,110.98,286.92,110.59,288.11,110.21z"/>
			<path fill="#2B262D" d="M284.43,101.58c2.22,1.68,1.72,3.852-1.61,5.58c-0.609-1.51-1.25-2.67-1.479-3.91
				c-0.109-0.608,0.37-1.688,0.881-1.95C282.78,101.01,283.89,101.18,284.43,101.58z"/>
			<path fill="#2B262D" d="M231.83,218.35c2.88-7.722,7.351-14.67,12.13-21.42c3.75-5.289,7.62-10.5,11.569-15.648
				c1.07-1.391,1.53-2.771,1.79-4.48c1.141-7.367,2.36-14.697,5.721-21.537c4.33-8.812,11.181-13.991,20.891-14.812
				c3.729-0.32,7.649,0.3,11.329,1.15c3.351,0.76,6.551,2.31,9.73,3.688c5.438,2.352,8.107,6.562,6.37,12.83
				c-1.95,7.05-5.17,13.312-10.381,18.479c-2.59,2.568-5.311,5.012-7.859,7.621c-1.29,1.311-2.7,1.577-4.479,1.561
				c-7.33-0.051-14.66,0.1-21.99,0.109c-3.46,0.01-6.561,0.721-9.04,3.391c-4.75,5.109-9.689,10.039-14.329,15.238
				C239.3,208.99,235.63,213.73,231.83,218.35z"/>
			<path fill="#2B262D" d="M457.849,220.58c-0.736-0.16-1.47-0.76-2.01-1.34c-1.12-1.221-0.28-2.44,0.062-3.721
				c0.18-0.643-0.32-1.449-0.514-2.183c-0.68,0.38-1.59,0.62-2,1.2c-0.55,0.779-0.8,1.812-1.06,2.76
				c-0.95,3.45,0.35,6.25,3.56,7.803c2.974,1.431,6.57,0.631,8.48-1.99c1.09-1.5,1.938-3.129,1.25-5.103
				c-0.37-1.05-0.391-2.05,0.88-2.43c1.62-0.49,2.02,0.83,2.29,1.92c0.31,1.26,0.35,2.59,0.59,4.58c2.42-3.62,2.09-6.79-0.76-8.647
				c-1.28-0.843-3.12-1.439-4.58-1.229c-1.9,0.29-2.021,2.28-2.17,4.01C461.611,219.24,459.929,221.04,457.849,220.58z
				 M457.83,195.529c-4.11,2.431-8.22,4.841-12.3,7.301c-1.474,0.88-2.04,2.199-1.2,3.812c0.93,1.737,1.85,3.521,3.03,5.101
				c1.1,1.46,2.646,1.899,4.68,0.54c-1.03-1.48-2.06-2.91-3.04-4.381c-1.23-1.859-1.21-1.869,1.58-3.479
				c0.7,0.87,1.34,1.842,2.147,2.642c0.923,0.91,2.133,2.102,3.369,1.051c1.32-1.109,0.224-2.399-0.55-3.479
				c-0.45-0.63-0.91-1.25-1.5-2.06c1.354-0.61,2.391-1.09,3.74-1.711c1.107,1.32,1.84,2.461,2.84,3.261
				c0.49,0.392,1.68,0.479,2.18,0.149c0.474-0.319,0.78-1.461,0.604-2.069C462.599,199.359,460.519,197.51,457.83,195.529z
				 M434.88,195.5c0.01,2.852,1.53,4.562,4.021,5.74c2.88,1.359,5.316,0.27,7.39-1.42c2.03-1.65,2.91-4.021,1.89-6.721
				c-0.236-0.619-0.72-1.211-0.75-1.83c-0.026-0.562,0.24-1.393,0.66-1.649c0.42-0.25,1.51-0.17,1.74,0.16
				c1.04,1.43,1.87,3,2.88,4.71c0.38-0.432,0.75-0.641,0.79-0.91c0.66-4.2-3.82-8.45-7.7-7.3c-1.42,0.42-2.29,1.43-2.26,2.93
				c0.02,1.149,0.38,2.29,0.46,3.45c0.17,2.47-1,3.92-3.229,4.109c-1.729,0.16-2.553-0.723-2.819-3.24
				c-0.13-1.109,0.42-2.739-1.144-2.859c-1.67-0.141-1.866,1.48-1.92,2.83C434.861,194.17,434.88,194.84,434.88,195.5z
				 M295.89,107.55c1.601,1.682,3.101,1.672,4.939-0.198c-3.13-3.142-6.24-6.302-9.42-9.392c-0.689-0.68-1.601-1.278-2.511-1.528
				c-0.63-0.182-1.449,0.3-2.189,0.479c0.17,0.57,0.16,1.3,0.529,1.69C290.09,101.62,293.04,104.54,295.89,107.55z M311.219,84.45
				c1.69,7.16,0.98,8.15-6.72,8.98c-0.16-1.12-0.17-2.29-0.5-3.37c-0.87-2.84-4.149-5.5-6.2-4.722
				c-2.13,0.812-4.311,1.95-5.939,3.49c-2.529,2.41-2.42,4.73-0.021,7.37c1.08,1.2,2.511,2.12,3.851,3.07
				c2.29,1.63,4.721,3.06,6.91,4.81c1.811,1.44,2.88,0.76,4.079-0.89c-1.398-1.61-2.789-3.21-4.779-5.49
				c2.011-0.39,3.141-0.59,4.251-0.84c1.14-0.25,2.27-0.51,3.39-0.82c2.32-0.64,4.33-1.72,5.47-3.99
				C316.63,88.81,314.901,85.35,311.219,84.45z M316.55,83.26c0.61,0.342,1.62,0.36,2.3,0.12c3.16-1.12,4.4-3.028,4.37-6.42
				c-0.05-4.46-2.56-8.108-6.6-9.608c-3.58-1.33-7.61-0.17-10.4,2.818c-1.449,1.552-1.739,3.19-0.729,4.972
				c0.55,0.988,1.25,2.05,2.161,2.658C310.54,79.74,313.531,81.53,316.55,83.26z M320.599,62.37c0.69,1.39,1.86,1.88,3.303,1.65
				c1.3-0.21,2.55-0.78,3.857-0.92c2.16-0.23,3.853,1.29,4.07,3.448c0.21,2.052-0.61,2.892-3.28,3.29
				c-0.317,0.052-0.71-0.1-0.979,0.021c-0.562,0.24-1.053,0.61-1.57,0.93c0.44,0.61,0.771,1.59,1.35,1.771
				c2.86,0.898,5.683,0.64,7.883-1.57c2.06-2.05,2.447-4.66,1.47-7.4c-1.103-3.068-3.23-5.148-6.5-5.43
				c-1.36-0.12-2.84,0.72-4.21,1.25c-0.99,0.38-2.13,0.812-2.55-0.38c-0.25-0.72,0.117-2.03,0.697-2.59c1-0.98,2.37-1.58,4.24-2.75
				c-3.68-1.69-5.43,0.31-7,2.148C319.769,57.72,319.41,60.01,320.599,62.37z M345.099,47.01c0.62,3.172,3.24,4.562,6.433,3.922
				c1.43-0.29,2.816-0.83,4.46-1.32c0.27-3.92,2.16-8.19-2.771-11.55c0.312,2.02,0.55,3.55,0.82,5.34
				c-2.11-1.88-3.91-3.46-5.69-5.08c-0.72-0.66-1.697-1.271-1.979-2.11c-0.24-0.7,0.359-1.688,0.49-2.17
				c-2.263-0.14-4.143-0.26-5.763-0.358c0,2.028-0.157,3.938,0.062,5.81c0.12,1.08,0.569,2.46,1.357,3.05
				C344.12,43.73,344.719,45.07,345.099,47.01z M405.66,149.21c-3.24-0.56-3.61,2.513-5.76,3.472
				c-0.771-0.568-1.66-1.229-2.65-1.959c0.84-1.11,1.54-2.012,2.2-2.939c0.63-0.88,1.02-1.94-0.12-2.54
				c-0.54-0.28-1.8-0.06-2.19,0.39c-2.688,3.15-5.316,6.354-7.776,9.682c-0.88,1.188-0.03,2.092,1.29,2.432
				c1.05-1.131,1.96-2.33,3.08-3.271c1.22-1.012,2.67-0.648,3.52,0.479c0.4,0.54,0.12,1.79-0.17,2.609
				c-0.312,0.92-1.12,1.67-1.44,2.59c-0.22,0.647,0.021,1.461,0.054,2.188c0.688-0.17,1.656-0.1,2.01-0.54
				c2.47-3.118,4.88-6.288,7.146-9.55C405.401,151.46,405.401,150.27,405.66,149.21z M202.71,175.21
				c2.979,2.04,5.84,4.46,9.141,5.78c4.08,1.648,10.431-3.801,9.939-8.2c-0.2-1.74-0.55-4.108-1.721-4.96
				c-3.409-2.46-7.13-4.58-11.069-6.13c-0.29,0.34-0.59,0.68-0.891,1.021c1.71,1.771,3.391,3.561,5.131,5.287
				c0.939,0.934,2.05,1.7,2.949,2.672c0.88,0.932,2,1.852,1.189,3.438c-0.8,1.569-1.811,2.938-3.729,2.78
				c-1.62-0.131-3.271-0.49-4.771-1.08c-1.689-0.66-3.21-1.73-4.851-2.521c-0.319-0.158-1.13,0.021-1.229,0.25
				C202.59,174.05,202.45,175.04,202.71,175.21z M407.62,174.221c4.31,2.5,8.25,1.777,11.63-1.883c1.46-1.58,1.93-3.408,2.25-5.396
				c0.27-1.73,0.88-3.15,3.05-3.262c0.51-0.029,0.97-1.021,1.45-1.562c-0.61-0.431-1.26-1.271-1.84-1.229
				c-2.09,0.157-3.24-0.843-4.562-2.33c-1.85-2.069-4.42-2.699-7.29-2.119c-4.22,0.856-7.229,3.34-9.27,6.938
				c-1.13,1.972-2.23,3.62-4.66,3.95c-0.45,0.062-0.84,0.5-1.67,1.021c1.271,0.842,2.06,1.791,2.75,1.729
				c2.42-0.21,4.1,0.859,5.71,2.43C405.87,173.2,406.76,173.721,407.62,174.221z M205.82,185.05
				c2.271,1.052,4.181,2.021,6.181,2.802c0.439,0.17,1.42-0.188,1.649-0.592c0.2-0.357-0.101-1.396-0.489-1.658
				c-3.9-2.529-7.82-5.039-11.841-7.369c-0.76-0.439-1.979-0.062-4.149-0.062c2.359,2.271,3.859,3.723,5.551,5.352
				c-0.641,1-1.29,2.021-1.9,2.979c-1.59-0.938-2.84-1.75-4.17-2.42c-0.33-0.17-1.149-0.01-1.311,0.26
				c-0.3,0.49-0.5,1.24-0.34,1.762c0.17,0.568,0.71,1.131,1.229,1.5c3.271,2.291,6.55,4.551,9.87,6.771
				c1.489,1,2.43,0.391,3.01-1.38c-0.89-0.69-1.819-1.351-2.68-2.091C204.21,188.99,204.23,188.98,205.82,185.05z M422.29,170.529
				c-1.56,2.33-3.07,4.711-4.74,6.951c-1.18,1.59-0.22,2.379,1.01,3.356c1.49-1.22,2.99-2.438,4.91-4
				c0.54,1.979,0.95,3.54,1.394,5.08c0.396,1.433,0.63,2.972,1.316,4.263c1.17,2.17,3.07,3.537,5.684,3.237
				c2.3-0.271,4.34-1.06,5.04-3.897c-8,1.351-9.42,0.271-8.32-6.119c0.76-0.16,1.61-0.2,2.35-0.5c4.37-1.78,5.46-5.17,2.98-9.184
				c-3.16-5.1-7.26-5.277-10.852-0.46C422.76,169.65,422.571,170.12,422.29,170.529z M244.8,128.21
				c-1.439-1.35-2.79-2.818-4.369-3.988c-1.11-0.82-2.521-1.852-4.29,0.35c3.409,3.49,6.729,6.9,10.05,10.3
				c1.7,1.73,3.08,0.97,4.91-0.77C248.88,132.02,246.84,130.11,244.8,128.21z M243.86,140.68c0.631,0.368,1.74-0.08,2.62-0.15
				c-0.16-0.72-0.29-1.45-0.521-2.14c-0.101-0.29-0.37-0.562-0.63-0.762c-4.399-3.238-8.801-6.479-13.221-9.698
				c-0.39-0.28-0.89-0.472-1.359-0.592c-2.229-0.55-3.761,0.932-3.391,3.24c0.24,1.59,0.471,3.18,0.74,5.04
				c-1.221,0.17-2,0.3-2.79,0.4c-2.141,0.27-4.689,0.29-5.141,2.93c-0.38,2.28,1.729,3.26,3.439,4.36
				c3.399,2.18,7.061,4.068,9.37,7.608c-0.029,0-0.05,0-0.069,0c0.039,0.052,0.09,0.102,0.14,0.15c-2.05-0.99-4.101-1.96-6.13-2.98
				c-2.521-1.26-4.92-2.8-7.529-3.8c-2.42-0.93-4.24,0.97-3.57,3.41c0.271,0.96,0.681,1.87,0.96,2.819
				c0.46,1.561-0.109,2.601-1.699,2.979c-0.801,0.189-1.74,0.029-2.42,0.4c-1.11,0.59-2.511,1.27-2.95,2.277
				c-0.689,1.579,0.62,2.869,1.91,3.649c4.399,2.63,8.89,5.12,13.319,7.7c1.67,0.97,2.729,0.479,3.62-1.28
				c-3.311-3.101-7.811-4.5-11.24-7.84c6.979-0.58,7.03-0.66,4.75-6.69c-0.149-0.396-0.25-0.818-0.47-1.52
				c2.939,1.479,5.569,2.789,8.189,4.13c1.33,0.67,2.601,1.489,3.97,2.05c0.461,0.189,1.54-0.028,1.681-0.35
				c0.271-0.61,0.33-1.59,0-2.131c-0.641-1.039-1.569-1.91-2.391-2.83c0.021,0.011,0.04,0.021,0.061,0.028
				c-0.04-0.061-0.08-0.118-0.12-0.181c1.561,0.01,3.28,2.34,4.9-0.8c-3.37-2.78-6.851-5.65-10.761-8.88
				c1.551,0.109,2.53,0.279,3.5,0.22c3.301-0.2,3.75-0.81,3.181-3.979c-0.181-1.021-0.301-2.039-0.54-3.649
				c1.149,0.75,1.689,1.11,2.229,1.47C238.28,137.11,241,139.01,243.86,140.68z M262.36,125.72c-0.47-1.302-0.659-2.262-1.141-3.052
				c-1.619-2.688-3.31-5.34-5.05-7.96c-0.63-0.96-1.351-1.93-2.229-2.64c-0.681-0.54-1.681-0.67-2.529-0.98
				c-0.08,1.07-0.49,2.262-0.15,3.17c0.561,1.462,1.61,2.74,2.891,4.79c-4.729-1.17-8.521-3.318-13.3-2.97
				c0.359,1.63,0.311,3.08,0.96,4.05c2.489,3.7,5.189,7.271,7.87,10.852c0.729,0.97,1.779,1.608,3.021,0.8
				c1.609-1.04,0.819-2.44,0.1-3.43c-1.35-1.86-2.979-3.512-5.069-5.92C252.97,123.6,256.95,126.97,262.36,125.72z M278.06,192.55
				c5.29,1.343,10.569,3.103,15.489,5.44c3.521,1.67,6.61,4.41,9.591,7.01c4.878,4.271,9.378,8.99,14.301,13.21
				c8.92,7.67,19.607,9.41,30.897,8.38c6.84-0.617,13.63-0.688,20.36,0.66c3.84,0.771,7.25,2.562,9.938,5.41
				c3.2,3.38,6.37,6.83,9.24,10.479c5.86,7.471,13.38,11.358,22.88,11.051c4.644-0.159,9.28-0.603,13.894-1.143
				c1.776-0.21,3.526-0.92,5.22-1.607c10.04-4.062,14.18-11.721,12.04-22.312c-1.13-5.59-3.12-10.896-6.24-15.67
				c-6.15-9.398-13.188-18-22.53-24.47c-10.29-7.12-19.938-15.04-29.316-23.3c-1.24-1.092-2.45-2.291-3.394-3.644
				c-1.89-2.71-2.81-5.76-1.27-8.907c1.46-2.959,2.8-6.183,5-8.531c7.37-7.92,15.14-15.46,22.68-23.21
				c3.37-3.46,6.71-6.96,9.76-10.682c4.75-5.81,5.96-12.858,6.41-20.09c0.36-5.81,0.724-11.62,1.09-17.42
				c0.04-0.67,0.03-1.358,0.224-1.979c2.52-8.57,5.08-17.12,7.68-25.87c7.38,2.84,12.79,7.76,18.34,12.54
				c5.04,4.34,10.29,8.45,15.604,12.46c3.367,2.55,6.236,5.41,8.367,9.1c4.923,8.521,8.909,17.46,12.303,26.69
				c3.566,9.75,4.106,19.88,3.43,30.04c-0.521,7.938-1.771,15.839-2.8,23.738c-1.33,10.213-2.91,20.383-3.49,30.7
				c-0.62,10.933-1.59,21.88-4.88,32.44c-1.69,5.43-4.03,10.539-7.65,15.606c-0.159-2.696-0.29-4.93-0.438-7.397
				c-2.88,0-5.473,0-8.42,0c0,2.771,0,5.479,0,8.49c2.43,0.141,4.697,0.26,7.81,0.438c-2.108,2.38-3.67,4.439-5.51,6.189
				c-9.82,9.311-21.43,15.631-33.96,20.521c-13.67,5.33-27.87,8.76-42.16,11.84c-8.93,1.92-17.91,3.552-26.88,5.263
				c-9.99,1.897-20.11,2.42-30.21,3.277c-9.7,0.83-19.312,0.262-28.891-0.55c-19.92-1.67-39-6.41-56.21-17.147
				c-9.601-5.979-17.51-13.74-24.319-22.713c-11.439-15.037-20.78-31.316-28.729-48.43c-4.551-9.811-6.801-20.09-6.5-30.938
				c0.521-19.229,2.96-38.081,10.3-56.062c5.649-13.85,13.551-26.34,23.109-37.75c15.29-18.229,33.66-32.64,54.99-43.2
				c11.989-5.93,24.601-10.159,37.83-12.14c10.05-1.51,20.229-1.57,30.39-1.561c16.71,0.021,33.183,1.859,49.3,6.409
				c3.014,0.852,5.974,1.9,8.94,2.852c-1.92,6.318-22.34,34.8-30.78,42.95c-0.25-2.312-0.38-4.25-0.688-6.15
				c-0.341-2.11-0.57-4.32-1.37-6.26c-1.011-2.42-2.91-3.05-5.33-1.91c-1.92,0.91-3.931,2-5.38,3.51
				c-4.13,4.32-8.3,8.67-11.91,13.43c-5.74,7.562-11.521,14.98-18.54,21.512c-5.71,5.3-10.54,11.54-15.7,17.42
				c-0.979,1.12-1.688,2.47-2.5,3.729c-3.35,5.16-6.789,10.271-9.989,15.521c-1.601,2.63-3.721,3.35-6.641,3.33
				c-4.311-0.03-8.63,0.18-12.92,0.59c-10.989,1.05-18.681,7.22-24.479,16.18c-4.061,6.25-6.271,13.22-7.489,20.479
				c-0.931,5.488-2.771,10.511-5.37,15.431c-5.271,10-10.25,20.149-15.25,30.29c-0.86,1.76-1.37,3.76-1.689,5.71
				c-0.189,1.18-0.091,2.771,0.579,3.66c0.95,1.26,2.4,0.35,3.62-0.222c7.21-3.352,13.36-8.108,18.479-14.182
				c3.21-3.818,6.49-7.607,9.431-11.64C262.95,192.3,269.98,190.52,278.06,192.55z M275.13,101.78c2.051,5,3.83,9.63,5.841,14.16
				c2.09,4.71,1.38,3.96,6.76,3.08c1.08-0.182,2.181-0.84,3.08-1.54c2.13-1.66,2.899-4.37,1.521-6.63c-1.479-2.432-2.311-5-3.2-7.66
				c-1.359-4.11-5.3-5.45-9.189-3.61C278.45,100.28,276.95,100.95,275.13,101.78z M272.42,114.97c0.54,0.14,1.431,0.738,1.391,1.02
				c-0.09,0.71-0.46,1.64-1.021,1.99c-2.87,1.8-6.16,0.21-6.79-3.17c-0.8-4.23,0.721-6.802,5.859-9.45
				c-4.01-1.71-7.659-0.48-8.979,2.91c-1.22,3.148-1.529,6.488-0.359,9.77c1.479,4.2,5.351,6.182,9.59,4.892
				c1.261-0.392,2.399-1.142,3.601-1.71c1.87-0.892,2.899-2.28,2.38-4.392c-0.579-2.31-1.5-4.898-3.869-5.42
				c-1.761-0.38-4.189,0.29-5.49,3.062C270.27,114.66,271.37,114.71,272.42,114.97z"/>
		</g>
	</g>
</g>
<g>
	<g>
		<path fill="#2B262D" d="M462.553,237.602c-1.038,2.654-2.332,5.229-4.278,7.338c0.782,0.604,1.567,1.213,2.354,1.815
			c1.544-3.2,3.65-6.021,5.854-8.802c1.566-1.979,4.199-3.586,4.634-6.223c0.216-1.314-0.957-2.311-2.203-1.693
			c-1.921,0.945-3.354,2.533-4.971,3.9c0.854,0.354,1.705,0.707,2.561,1.061c-0.271-1.006-0.118-1.977,0.462-2.909
			c0.676-1.261-0.73-2.915-2.052-2.052c-2.163,1.415-3.416,3.54-5.304,5.234c0.854,0.354,1.707,0.707,2.561,1.061
			c0.002-0.57,0.021-1.143,0.048-1.713c0.023-0.473,0.075-0.939,0.156-1.407c0.18-1.108-0.36-0.194-0.278,0.416
			c0.221,1.646-0.062,3.447,0.544,5.021c1.772,4.589,8.067-3.654,9.093-4.922c-0.837-0.224-1.672-0.441-2.509-0.662
			c0.579,2.582-2.037,4.771-3.978,5.974c0.505,0.862,1.009,1.729,1.514,2.59c1.334-1,2.667-2,4-3
			c-0.684-0.685-1.368-1.366-2.052-2.052c-0.312,0.886-0.909,1.482-1.795,1.795c0.732,0.564,1.469,1.129,2.203,1.693
			c0.104-0.906,0.533-1.574,1.278-2.006c-0.837-0.485-1.672-0.975-2.508-1.459c-0.222,0.666-0.441,1.334-0.666,2
			c-0.393,1.178,1.144,2.488,2.203,1.691c0.445-0.333,0.892-0.666,1.333-1c-0.604-0.785-1.212-1.568-1.814-2.354
			c-0.427,0.506-0.879,0.981-1.363,1.434c-1.533,1.143-0.04,3.747,1.514,2.59c0.771-0.572,1.329-1.178,1.974-1.898
			c1.064-1.203-0.389-3.434-1.817-2.355c-0.444,0.333-0.889,0.667-1.333,1c0.734,0.564,1.469,1.129,2.203,1.693
			c0.223-0.666,0.442-1.334,0.666-2c0.519-1.561-1.444-2.327-2.507-1.459c-1.127,0.92-1.82,1.885-2.054,3.328
			c-0.212,1.312,0.953,2.311,2.202,1.691c1.319-0.646,2.225-1.552,2.871-2.871c0.596-1.205-0.737-3.036-2.052-2.052
			c-1.334,1-2.667,2-4,3c-1.505,1.128-0.173,3.633,1.514,2.59c3.229-1.991,6.265-5.317,5.356-9.358
			c-0.231-1.031-1.8-1.537-2.507-0.662c-1.037,1.285-2.102,2.53-3.246,3.719c-0.236,0.224-0.475,0.447-0.708,0.673
			c-1.29,0.452-1.372,0.964-0.246,1.535c-0.236-0.612-0.176-1.556-0.239-2.198c-0.182-1.83-0.054-3.489-1.283-4.998
			c-0.91-1.115-3.057-0.712-3.761,0.417c-0.991,1.593-0.951,3.769-0.956,5.581c-0.004,1.361,1.611,1.913,2.562,1.062
			c1.683-1.511,2.771-3.506,4.693-4.768c-0.684-0.684-1.367-1.365-2.052-2.052c-0.791,1.478-1.092,2.741-0.872,4.423
			c0.172,1.314,1.492,1.964,2.562,1.062c1.423-1.201,2.674-2.601,4.36-3.434c-0.731-0.562-1.469-1.129-2.203-1.691
			c-0.219,1.332-1.184,2.045-2.134,2.89c-1.146,1.021-2.044,2.401-2.987,3.61c-1.92,2.457-3.702,4.994-5.062,7.809
			c-0.706,1.464,1.135,3.14,2.355,1.816c2.313-2.506,3.816-5.506,5.053-8.662C466.152,236.596,463.25,235.82,462.553,237.602
			L462.553,237.602z"/>
	</g>
</g>
</svg>
