<?xml version="1.0" encoding="utf-8"?>
<!-- Generator: Adobe Illustrator 16.0.0, SVG Export Plug-In . SVG Version: 6.00 Build 0)  -->
<!DOCTYPE svg PUBLIC "-//W3C//DTD SVG 1.1//EN" "http://www.w3.org/Graphics/SVG/1.1/DTD/svg11.dtd">
<svg version="1.1" id="Layer_2" xmlns="http://www.w3.org/2000/svg" xmlns:xlink="http://www.w3.org/1999/xlink" x="0px" y="0px"
	 width="700px" height="300px" viewBox="0 0 700 300" enable-background="new 0 0 700 300" xml:space="preserve">
<g>
	<g id="XMLID_1_">
		<g>
			<path fill="#333333" d="M430.09,174.98c-1.63,0.22-3.34,0.14-4.68-1.761c1.1-0.93,2.09-2.17,3.37-2.68
				c0.79-0.32,2.16,0.3,3.02,0.88c0.49,0.32,0.891,1.67,0.62,2.061C431.93,174.2,430.95,174.86,430.09,174.98z"/>
			<path fill="#333333" d="M407.13,165c4.25-5.19,6.69-5.87,11.99-3.3C414.98,162.84,411.31,163.84,407.13,165z"/>
			<path fill="#333333" d="M407.44,168.41c3.68-1.08,7.27-2.13,10.88-3.19c0.59,3.28-0.08,5.13-2.2,6.25
				C413.69,172.76,411.02,171.84,407.44,168.41z"/>
			<path fill="#333333" d="M416.55,73.15c2.98,3.08,3.58,5.65,1.36,8.75c-1.62,2.25-3.68,4.41-6.01,5.87
				c-5.19,3.26-10.69,6.06-16.051,9.04c-0.83,0.46-1.64,0.96-2.75,1.61c2.46,1.36,4.36,0.37,6.061-0.44
				c4.03-1.92,7.95-4.06,11.89-6.16c1.11-0.59,2.16-1.02,3.16,0.06c1.11,1.23,0.8,2.43-0.24,3.54c-0.569,0.6-1.14,1.21-1.739,1.79
				c-3.03,2.94-6.54,5.14-10.49,6.6c-2.8,1.04-5.66,1.93-8.49,2.92c-2.14,0.75-4.33,1.43-6.88,3.47c1.51,0.11,2.22,0.34,2.83,0.18
				c4.17-1.1,8.31-2.28,12.46-3.45c0.79-0.22,1.54-0.61,2.34-0.73c1.28-0.19,2.06,0.66,1.72,1.74c-0.479,1.51-1.09,3.31-2.239,4.2
				c-2.07,1.58-4.49,2.86-6.95,3.74c-4.221,1.52-8.62,2.51-12.86,3.97c-3.29,1.13-6.479,2.59-9.67,4c-0.62,0.28-1.04,1-1.19,2.23
				c6.421-1.97,12.841-3.93,19.41-5.94c1.58,2.33,1.011,4.31-0.8,5.78c-1.51,1.23-3.3,2.3-5.15,2.87
				c-4.75,1.48-9.609,2.6-14.399,3.96c-2.36,0.68-4.64,1.59-6.88,2.8c3.39,1.68,6.52-0.36,9.71-0.67
				c3.25-0.33,6.42-1.49,10.149-2.41c-1.189,4.6-4.18,6.99-8.02,8.22c-4.1,1.31-8.36,2.11-12.54,3.15c-2.7,0.67-5.38,1.38-8.73,2.25
				c3.74,1.39,3.75,1.41,9.591,0.41c3.08-0.53,6.159-1.12,9.479-1.72c-0.39,3.13-2.55,4.55-5.149,5.13
				c-3.881,0.85-7.83,1.37-11.761,1.93c-3.13,0.46-6.02,1.351-8.55,3.13c0.09,0.33,0.17,0.67,0.26,1.011
				c4.629-0.65,9.27-1.29,13.919-1.94c0.21,3.94-0.47,5.19-3.77,5.92c-3.72,0.82-7.521,1.34-11.3,1.88
				c-2.75,0.4-5.36,1.08-8.65,3.12c2.16,0.12,3.3,0.35,4.39,0.21c5.59-0.74,11.19-1.47,16.74-2.46c1.42-0.25,2.44-0.34,3.7,0.48
				c5.71,3.72,11.61,7.159,17.22,11.029c4.23,2.92,8.09,6.391,12.181,9.53c12.729,9.77,23.649,21.46,34.96,32.73
				c1.14,1.13,2.01,2.52,3.18,4.02c-2.74,0.75-4.21-0.8-5.75-1.92c-5.12-3.73-10.19-7.5-15.25-11.3c-1.31-0.98-2.53-2.03-4.6-2.17
				c0.51,2.46,2.14,3.569,3.689,4.71c6.69,4.949,13.37,9.91,20.09,14.81c3.311,2.41,5.801,5.32,6.721,9.8
				c-3.221-0.199-5.73-1.51-7.87-3.16c-5.12-3.96-10.021-8.199-15.021-12.319c-0.81-0.67-1.67-1.28-3.29-2.49
				c1.42,5.46,5.471,7.64,8.24,10.66c2.79,3.07,6.48,5.31,10.26,8.29c-3.939-0.3-6.64-1.69-9.029-3.83c-2.49-2.22-5-4.42-7.591-6.51
				c-0.449-0.36-1.39-0.12-2.109-0.16c0.16,0.71,0.069,1.689,0.51,2.09c3.91,3.6,7.91,7.09,12.29,10.98
				c-0.3,0.56-0.71,1.81-1.51,2.71c-1.82,2.069-3.391,2.25-5.61,0.5c-1.81-1.44-3.37-3.21-5.02-4.851
				c-0.7-0.71-1.271-1.55-2.021-2.18c-0.27-0.22-1.03-0.17-1.35,0.06c-0.3,0.21-0.57,0.971-0.42,1.23
				c1.01,1.72,2.14,3.359,3.229,5.02c-4.979,6.07-6.92,6.13-11.91-0.01c-1.859-2.3-3.37-4.91-4.859-7.479
				c-2.87-4.9-5.891-9.66-11.25-14.131c7.479,1.891,12.75,6.061,19,8.24c-0.261-4.7-2.301-11.399-4.16-13.81
				c-1.3,2.819,0.6,5.529,0.27,8.75c-8.359-3.851-16.56-7.11-23.39-12.73c-2.37-1.95-3.96-4.859-5.84-7.37
				c-0.65-0.87-1.12-1.88-1.811-3.069c-1.76,4.64,0.54,8.27,9.87,16.06c-3.87,0.39-7.18-0.67-10.21-2.36
				c-3.33-1.859-6.43-4.119-9.609-6.229c-1.28-0.85-1.261-0.88-3.391-0.58c2.48,4.57,9.76,9.33,17.76,11.61
				c-6.649,2.3-14.779,2.59-21.06,1.979c-13.7-1.34-24.22-8.51-34.03-17.32c-3.96-3.56-8.05-6.979-12.32-10.659
				c5.51-4.601,7.25-11.36,9.49-17.9c2.28-6.68,3.79-13.44,2.88-20.84c4.94-0.33,6.87-3.68,8.09-7.69
				c3.28-10.73,9.15-19.9,16.78-28.03c6.72-7.16,13.43-14.34,20.169-21.49c9.71-10.3,19.4-20.61,29.171-30.85
				c7.3-7.65,12.72-16.62,18.329-25.47c2.671-4.21,5.08-8.59,7.641-12.87c0.91-1.53,1.58-3.33,3.649-3.92
				c2.17,1.61,2.23,3.98,2.271,6.27c0.09,4.66-1.66,8.74-4.061,12.65c-3.859,6.29-8.42,11.97-13.88,16.92
				c-0.739,0.67-1.66,1.13-2.25,1.94c2.931,0.05,2.98,0.1,9.2-6.3c2.65-2.73,5.04-5.71,7.521-8.56c4.659,2.94,5.22,5.19,2.29,9.26
				c-2.96,4.1-6.74,7.35-10.94,10.14c-2.44,1.61-4.8,3.34-7.68,5.36c4.37,0.49,9.35-2.26,16.37-8.58c0.6,3.91-1.36,6.65-3.801,8.75
				c-4.029,3.45-8.439,6.45-12.699,9.63c-0.641,0.48-1.33,0.88-2.19,1.45c3.12,0.9,4.06,0.73,8.99-2.45
				C411.63,77.08,414.04,75.03,416.55,73.15z"/>
			<path fill="#333333" d="M363.58,76.68c1.59,5.24-0.48,9.67-3.13,13.9c-1.141,1.83-2.5,3.55-3.95,5.15
				c-6.25,6.9-12.47,13.84-18.88,20.6c-7.09,7.49-12.23,16.12-15.62,25.82c-0.55,1.57-0.95,3.22-1.74,4.66
				c-1.72,3.17-4.82,3.52-7.4,0.98c-3.07-3.02-4.24-6.53-3.39-10.87c1.66-8.56,5.72-15.96,11.02-22.65
				c5.47-6.91,11.12-13.72,17.17-20.12c7.47-7.91,14.07-16.39,19.689-25.69c0.69-1.13,1.42-2.25,2.2-3.32
				c0.271-0.38,0.771-0.6,1.55-1.19c1.48,2.68,1.46,5.02,0.721,7.51c-1.48,4.99-3.801,9.55-6.7,13.85
				c-6.53,9.68-13.41,19.06-22.41,26.66c-0.29,0.25-0.33,0.79-0.93,2.35C346.35,104.12,355.45,90.86,363.58,76.68z"/>
			<path fill="#333333" d="M350.81,46.52c-1.98,0.9-2.48-0.04-3.02-2.74C349.27,45.12,349.97,45.76,350.81,46.52z"/>
			<path fill="#333333" d="M314.89,70.57c3.01,1.54,4.38,5.72,3.06,10.21c-3.24-2.38-6.34-4.68-9.73-7.17
				C310.55,70.27,312.63,69.42,314.89,70.57z"/>
			<path fill="#333333" d="M312.34,164.72c0.08,0.21,0.28,0.48,0.22,0.61c-0.09,0.189-0.27,0.33-0.44,0.479
				c0.03-0.21,0.07-0.42,0.11-0.63C312.25,165.02,312.3,164.87,312.34,164.72z"/>
			<path fill="#333333" d="M311.93,165.98c0.06-0.061,0.13-0.11,0.19-0.171c-0.02,0.091-0.03,0.19-0.05,0.29L311.93,165.98z"/>
			<path fill="#333333" d="M312.07,166.1c-0.07,0.11-0.13,0.21-0.2,0.32c0.02-0.14,0.04-0.29,0.06-0.439L312.07,166.1z"/>
			<path fill="#333333" d="M308.49,171.9c1.18-1.801,2.26-3.65,3.38-5.48c-1.12,8.92-4.33,16.97-9.92,24.22
				c-2.94-1.47-5.66-2.84-8.55-4.29C299.47,182.46,304.6,177.81,308.49,171.9z"/>
			<path fill="#333333" d="M298.19,88.39c1.49,0.28,1.95,1.69,1.87,3.04c-0.09,1.38-0.5,2.74-0.77,4.1c-0.47,0.15-0.93,0.3-1.4,0.44
				c-0.8-1.02-1.9-1.93-2.31-3.09c-0.38-1.1-0.3-2.56,0.12-3.65C295.91,88.69,297.4,88.24,298.19,88.39z"/>
			<path fill="#333333" d="M288.11,110.21c1.26,3.42,1.14,5.29-0.48,5.51c-2.83,0.38-2.38-2.42-3.95-4.07
				C285.73,110.98,286.92,110.59,288.11,110.21z"/>
			<path fill="#333333" d="M284.43,101.58c2.22,1.68,1.72,3.85-1.61,5.58c-0.61-1.51-1.25-2.67-1.48-3.91
				c-0.11-0.61,0.37-1.69,0.88-1.95C282.78,101.01,283.89,101.18,284.43,101.58z"/>
			<path fill="#333333" d="M231.83,218.35c2.88-7.72,7.35-14.67,12.13-21.42c3.75-5.29,7.62-10.5,11.57-15.649
				c1.07-1.391,1.53-2.771,1.79-4.48c1.14-7.37,2.36-14.7,5.72-21.54c4.33-8.81,11.18-13.99,20.89-14.81
				c3.73-0.32,7.65,0.3,11.33,1.15c3.35,0.76,6.55,2.31,9.73,3.69c5.44,2.35,8.11,6.56,6.37,12.83
				c-1.95,7.05-5.17,13.31-10.38,18.479c-2.59,2.57-5.31,5.011-7.86,7.62c-1.29,1.311-2.7,1.58-4.48,1.561
				c-7.33-0.05-14.66,0.1-21.99,0.109c-3.46,0.011-6.56,0.721-9.04,3.391c-4.75,5.109-9.69,10.04-14.33,15.239
				C239.3,208.99,235.63,213.73,231.83,218.35z"/>
			<path fill="#333333" d="M457.85,220.58c-0.739-0.16-1.47-0.76-2.01-1.34c-1.12-1.221-0.28-2.44,0.061-3.721
				c0.18-0.64-0.32-1.449-0.511-2.18c-0.68,0.38-1.59,0.62-2,1.2c-0.55,0.78-0.8,1.81-1.06,2.76c-0.95,3.45,0.35,6.25,3.56,7.8
				c2.971,1.431,6.57,0.631,8.48-1.989c1.09-1.5,1.939-3.13,1.25-5.101c-0.37-1.05-0.39-2.05,0.88-2.43
				c1.62-0.49,2.02,0.83,2.29,1.92c0.31,1.26,0.35,2.59,0.59,4.58c2.42-3.62,2.09-6.79-0.76-8.65c-1.28-0.84-3.12-1.439-4.58-1.229
				c-1.9,0.29-2.021,2.28-2.17,4.01C461.61,219.24,459.93,221.04,457.85,220.58z M457.83,195.53c-4.11,2.43-8.22,4.84-12.3,7.3
				c-1.471,0.88-2.04,2.2-1.2,3.81c0.93,1.74,1.85,3.521,3.03,5.101c1.1,1.46,2.649,1.899,4.68,0.54c-1.03-1.48-2.06-2.91-3.04-4.38
				c-1.23-1.86-1.21-1.87,1.58-3.48c0.7,0.87,1.34,1.84,2.15,2.64c0.92,0.91,2.13,2.101,3.369,1.051c1.32-1.11,0.221-2.4-0.55-3.48
				c-0.45-0.63-0.91-1.25-1.5-2.06c1.351-0.61,2.391-1.09,3.74-1.71c1.11,1.319,1.84,2.46,2.84,3.26
				c0.49,0.39,1.68,0.479,2.18,0.149c0.471-0.319,0.78-1.46,0.601-2.069C462.6,199.36,460.52,197.51,457.83,195.53z M434.88,195.5
				c0.01,2.85,1.53,4.56,4.021,5.74c2.88,1.359,5.319,0.27,7.39-1.42c2.03-1.65,2.91-4.021,1.89-6.721
				c-0.239-0.619-0.72-1.21-0.75-1.83c-0.029-0.56,0.24-1.39,0.66-1.649c0.42-0.25,1.51-0.17,1.74,0.16c1.04,1.43,1.87,3,2.88,4.71
				c0.38-0.431,0.75-0.641,0.79-0.91c0.66-4.2-3.82-8.45-7.7-7.3c-1.42,0.42-2.29,1.43-2.26,2.93c0.02,1.15,0.38,2.29,0.46,3.45
				c0.17,2.47-1,3.92-3.23,4.109c-1.729,0.16-2.55-0.72-2.819-3.239c-0.13-1.11,0.42-2.74-1.141-2.86
				c-1.67-0.14-1.869,1.48-1.92,2.83C434.86,194.17,434.88,194.84,434.88,195.5z M295.89,107.55c1.6,1.68,3.1,1.67,4.94-0.2
				c-3.13-3.14-6.24-6.3-9.42-9.39c-0.69-0.68-1.6-1.28-2.51-1.53c-0.63-0.18-1.45,0.3-2.19,0.48c0.17,0.57,0.16,1.3,0.53,1.69
				C290.09,101.62,293.04,104.54,295.89,107.55z M311.22,84.45c1.69,7.16,0.98,8.15-6.72,8.98c-0.16-1.12-0.17-2.29-0.5-3.37
				c-0.87-2.84-4.15-5.5-6.2-4.72c-2.13,0.81-4.31,1.95-5.94,3.49c-2.53,2.41-2.42,4.73-0.02,7.37c1.08,1.2,2.51,2.12,3.85,3.07
				c2.29,1.63,4.72,3.06,6.91,4.81c1.81,1.44,2.88,0.76,4.08-0.89c-1.4-1.61-2.79-3.21-4.78-5.49c2.01-0.39,3.14-0.59,4.25-0.84
				c1.14-0.25,2.27-0.51,3.39-0.82c2.32-0.64,4.33-1.72,5.47-3.99C316.63,88.81,314.9,85.35,311.22,84.45z M316.55,83.26
				c0.61,0.34,1.62,0.36,2.3,0.12c3.16-1.12,4.4-3.03,4.37-6.42c-0.05-4.46-2.56-8.11-6.6-9.61c-3.58-1.33-7.61-0.17-10.4,2.82
				c-1.45,1.55-1.74,3.19-0.73,4.97c0.55,0.99,1.25,2.05,2.16,2.66C310.54,79.74,313.53,81.53,316.55,83.26z M320.6,62.37
				c0.69,1.39,1.86,1.88,3.3,1.65c1.3-0.21,2.55-0.78,3.86-0.92c2.16-0.23,3.85,1.29,4.07,3.45c0.21,2.05-0.61,2.89-3.28,3.29
				c-0.32,0.05-0.71-0.1-0.98,0.02c-0.56,0.24-1.05,0.61-1.57,0.93c0.44,0.61,0.77,1.59,1.35,1.77c2.86,0.9,5.68,0.64,7.88-1.57
				c2.06-2.05,2.45-4.66,1.47-7.4c-1.1-3.07-3.23-5.15-6.5-5.43c-1.36-0.12-2.84,0.72-4.21,1.25c-0.99,0.38-2.13,0.81-2.55-0.38
				c-0.25-0.72,0.12-2.03,0.7-2.59c1-0.98,2.37-1.58,4.24-2.75c-3.68-1.69-5.43,0.31-7,2.15C319.77,57.72,319.41,60.01,320.6,62.37z
				 M345.1,47.01c0.62,3.17,3.24,4.56,6.43,3.92c1.43-0.29,2.819-0.83,4.46-1.32c0.27-3.92,2.16-8.19-2.771-11.55
				c0.311,2.02,0.55,3.55,0.82,5.34c-2.11-1.88-3.91-3.46-5.69-5.08c-0.72-0.66-1.7-1.27-1.98-2.11c-0.24-0.7,0.36-1.69,0.49-2.17
				c-2.26-0.14-4.14-0.26-5.76-0.36c0,2.03-0.16,3.94,0.06,5.81c0.12,1.08,0.57,2.46,1.36,3.05
				C344.12,43.73,344.72,45.07,345.1,47.01z M405.66,149.21c-3.24-0.56-3.61,2.51-5.76,3.47c-0.771-0.569-1.66-1.229-2.65-1.959
				c0.84-1.11,1.54-2.01,2.2-2.94c0.63-0.88,1.02-1.94-0.12-2.54c-0.54-0.28-1.8-0.06-2.19,0.39c-2.689,3.15-5.319,6.351-7.779,9.68
				c-0.88,1.19-0.03,2.091,1.29,2.431c1.05-1.13,1.96-2.33,3.08-3.271c1.22-1.01,2.67-0.649,3.52,0.48
				c0.4,0.54,0.12,1.79-0.17,2.609c-0.311,0.921-1.12,1.671-1.44,2.591c-0.22,0.649,0.021,1.46,0.051,2.189
				c0.689-0.17,1.659-0.1,2.01-0.54c2.47-3.12,4.88-6.29,7.149-9.55C405.4,151.46,405.4,150.27,405.66,149.21z M202.71,175.21
				c2.98,2.04,5.84,4.46,9.14,5.78c4.08,1.649,10.43-3.8,9.94-8.2c-0.2-1.74-0.55-4.11-1.72-4.96c-3.41-2.46-7.13-4.58-11.07-6.13
				c-0.29,0.34-0.59,0.68-0.89,1.02c1.71,1.771,3.39,3.561,5.13,5.29c0.94,0.931,2.05,1.7,2.95,2.67c0.88,0.931,2,1.851,1.19,3.44
				c-0.8,1.57-1.81,2.939-3.73,2.78c-1.62-0.131-3.27-0.49-4.77-1.08c-1.69-0.66-3.21-1.73-4.85-2.521
				c-0.32-0.16-1.13,0.021-1.23,0.25C202.59,174.05,202.45,175.04,202.71,175.21z M407.62,174.22c4.31,2.5,8.25,1.78,11.63-1.88
				c1.46-1.58,1.93-3.41,2.25-5.399c0.27-1.73,0.88-3.15,3.05-3.261c0.51-0.029,0.97-1.02,1.45-1.56
				c-0.61-0.43-1.26-1.271-1.84-1.23c-2.09,0.16-3.24-0.84-4.561-2.33c-1.85-2.069-4.42-2.699-7.29-2.119
				c-4.22,0.859-7.229,3.34-9.27,6.939c-1.13,1.97-2.23,3.62-4.66,3.95c-0.45,0.06-0.84,0.5-1.67,1.02
				c1.271,0.841,2.06,1.79,2.75,1.73c2.42-0.21,4.1,0.86,5.71,2.43C405.87,173.2,406.76,173.72,407.62,174.22z M205.82,185.05
				c2.27,1.05,4.18,2.021,6.18,2.8c0.44,0.17,1.42-0.189,1.65-0.59c0.2-0.359-0.1-1.399-0.49-1.66c-3.9-2.529-7.82-5.04-11.84-7.369
				c-0.76-0.44-1.98-0.061-4.15-0.061c2.36,2.271,3.86,3.72,5.55,5.35c-0.64,1-1.29,2.021-1.9,2.98c-1.59-0.94-2.84-1.75-4.17-2.42
				c-0.33-0.17-1.15-0.01-1.31,0.26c-0.3,0.49-0.5,1.24-0.34,1.76c0.17,0.57,0.71,1.131,1.23,1.5c3.27,2.29,6.55,4.551,9.87,6.771
				c1.49,1,2.43,0.39,3.01-1.38c-0.89-0.69-1.82-1.351-2.68-2.09C204.21,188.99,204.23,188.98,205.82,185.05z M422.29,170.53
				c-1.56,2.33-3.07,4.71-4.74,6.95c-1.18,1.59-0.22,2.38,1.01,3.359c1.49-1.22,2.99-2.439,4.91-4c0.54,1.98,0.95,3.54,1.391,5.08
				c0.399,1.43,0.63,2.97,1.319,4.26c1.17,2.17,3.07,3.54,5.681,3.24c2.3-0.27,4.34-1.06,5.04-3.9c-8,1.351-9.42,0.271-8.32-6.119
				c0.76-0.16,1.61-0.2,2.35-0.5c4.37-1.78,5.46-5.17,2.98-9.181c-3.16-5.1-7.26-5.279-10.851-0.46
				C422.76,169.65,422.57,170.12,422.29,170.53z M244.8,128.21c-1.44-1.35-2.79-2.82-4.37-3.99c-1.11-0.82-2.52-1.85-4.29,0.35
				c3.41,3.49,6.73,6.9,10.05,10.3c1.7,1.73,3.08,0.97,4.91-0.77C248.88,132.02,246.84,130.11,244.8,128.21z M243.86,140.68
				c0.63,0.37,1.74-0.08,2.62-0.15c-0.16-0.72-0.29-1.45-0.52-2.14c-0.1-0.29-0.37-0.56-0.63-0.76c-4.4-3.24-8.8-6.48-13.22-9.7
				c-0.39-0.28-0.89-0.47-1.36-0.59c-2.23-0.55-3.76,0.93-3.39,3.24c0.24,1.59,0.47,3.18,0.74,5.04c-1.22,0.17-2,0.3-2.79,0.4
				c-2.14,0.27-4.69,0.29-5.14,2.93c-0.38,2.28,1.73,3.26,3.44,4.36c3.4,2.18,7.06,4.07,9.37,7.61c-0.03,0-0.05,0-0.07,0
				c0.04,0.05,0.09,0.1,0.14,0.15c-2.05-0.99-4.1-1.96-6.13-2.98c-2.52-1.26-4.92-2.8-7.53-3.8c-2.42-0.93-4.24,0.97-3.57,3.41
				c0.27,0.96,0.68,1.87,0.96,2.82c0.46,1.56-0.11,2.6-1.7,2.98c-0.8,0.19-1.74,0.03-2.42,0.4c-1.11,0.59-2.51,1.27-2.95,2.279
				c-0.69,1.58,0.62,2.87,1.91,3.65c4.4,2.63,8.89,5.12,13.32,7.7c1.67,0.97,2.73,0.479,3.62-1.28c-3.31-3.1-7.81-4.5-11.24-7.84
				c6.98-0.58,7.03-0.66,4.75-6.69c-0.15-0.399-0.25-0.82-0.47-1.52c2.94,1.479,5.57,2.79,8.19,4.13c1.33,0.67,2.6,1.49,3.97,2.05
				c0.46,0.19,1.54-0.03,1.68-0.35c0.27-0.61,0.33-1.59,0-2.13c-0.64-1.04-1.57-1.91-2.39-2.83c0.02,0.01,0.04,0.02,0.06,0.029
				c-0.04-0.06-0.08-0.12-0.12-0.18c1.56,0.01,3.28,2.34,4.9-0.8c-3.37-2.78-6.85-5.65-10.76-8.88c1.55,0.11,2.53,0.28,3.5,0.22
				c3.3-0.2,3.75-0.81,3.18-3.98c-0.18-1.02-0.3-2.04-0.54-3.65c1.15,0.75,1.69,1.11,2.23,1.47
				C238.28,137.11,241,139.01,243.86,140.68z M262.36,125.72c-0.47-1.3-0.66-2.26-1.14-3.05c-1.62-2.69-3.31-5.34-5.05-7.96
				c-0.63-0.96-1.35-1.93-2.23-2.64c-0.68-0.54-1.68-0.67-2.53-0.98c-0.08,1.07-0.49,2.26-0.15,3.17c0.56,1.46,1.61,2.74,2.89,4.79
				c-4.73-1.17-8.52-3.32-13.3-2.97c0.36,1.63,0.31,3.08,0.96,4.05c2.49,3.7,5.19,7.27,7.87,10.85c0.73,0.97,1.78,1.61,3.02,0.8
				c1.61-1.04,0.82-2.44,0.1-3.43c-1.35-1.86-2.98-3.51-5.07-5.92C252.97,123.6,256.95,126.97,262.36,125.72z M278.06,192.55
				c5.29,1.34,10.57,3.101,15.49,5.44c3.52,1.67,6.61,4.41,9.59,7.01c4.88,4.27,9.38,8.99,14.3,13.21
				c8.92,7.67,19.61,9.41,30.9,8.38c6.84-0.62,13.63-0.689,20.36,0.66c3.84,0.77,7.25,2.56,9.939,5.41
				c3.2,3.38,6.37,6.83,9.24,10.479c5.86,7.471,13.38,11.36,22.88,11.051c4.641-0.16,9.28-0.601,13.891-1.141
				c1.779-0.21,3.529-0.92,5.22-1.609c10.04-4.061,14.18-11.721,12.04-22.311c-1.13-5.59-3.12-10.899-6.24-15.67
				c-6.15-9.4-13.189-18-22.53-24.47c-10.29-7.12-19.939-15.04-29.319-23.3c-1.24-1.091-2.45-2.29-3.391-3.641
				c-1.89-2.71-2.81-5.76-1.27-8.91c1.46-2.959,2.8-6.18,5-8.53c7.37-7.92,15.14-15.46,22.68-23.21c3.37-3.46,6.71-6.96,9.76-10.68
				c4.75-5.81,5.96-12.86,6.41-20.09c0.36-5.81,0.721-11.62,1.09-17.42c0.04-0.67,0.03-1.36,0.221-1.98
				c2.52-8.57,5.08-17.12,7.68-25.87c7.38,2.84,12.79,7.76,18.34,12.54c5.04,4.34,10.29,8.45,15.601,12.46
				c3.369,2.55,6.239,5.41,8.369,9.1c4.921,8.52,8.91,17.46,12.301,26.69c3.569,9.75,4.109,19.88,3.43,30.04
				c-0.521,7.94-1.771,15.84-2.8,23.74c-1.33,10.21-2.91,20.38-3.49,30.7c-0.62,10.93-1.59,21.88-4.88,32.44
				c-1.69,5.43-4.03,10.54-7.65,15.609c-0.16-2.699-0.29-4.93-0.439-7.399c-2.88,0-5.471,0-8.42,0c0,2.77,0,5.479,0,8.489
				c2.43,0.141,4.699,0.261,7.81,0.44c-2.11,2.38-3.67,4.44-5.51,6.19c-9.82,9.31-21.43,15.63-33.96,20.52
				c-13.67,5.33-27.87,8.76-42.16,11.84c-8.93,1.92-17.91,3.55-26.88,5.26c-9.99,1.9-20.11,2.421-30.21,3.28
				c-9.7,0.83-19.31,0.26-28.89-0.55c-19.92-1.67-39-6.41-56.21-17.15c-9.6-5.979-17.51-13.739-24.32-22.71
				c-11.44-15.04-20.78-31.319-28.73-48.43c-4.55-9.81-6.8-20.09-6.5-30.94c0.52-19.229,2.96-38.08,10.3-56.06
				c5.65-13.85,13.55-26.34,23.11-37.75c15.29-18.23,33.66-32.64,54.99-43.2c11.99-5.93,24.6-10.16,37.83-12.14
				c10.05-1.51,20.23-1.57,30.39-1.56c16.71,0.02,33.18,1.86,49.3,6.41c3.011,0.85,5.971,1.9,8.94,2.85
				c-1.92,6.32-22.34,34.8-30.78,42.95c-0.25-2.31-0.38-4.25-0.689-6.15c-0.341-2.11-0.57-4.32-1.37-6.26
				c-1.011-2.42-2.91-3.05-5.33-1.91c-1.92,0.91-3.931,2-5.38,3.51c-4.13,4.32-8.3,8.67-11.91,13.43
				c-5.74,7.56-11.52,14.98-18.54,21.51c-5.71,5.3-10.54,11.54-15.7,17.42c-0.98,1.12-1.69,2.47-2.5,3.73
				c-3.35,5.16-6.79,10.27-9.99,15.52c-1.6,2.63-3.72,3.35-6.64,3.33c-4.31-0.03-8.63,0.18-12.92,0.59
				c-10.99,1.05-18.68,7.22-24.48,16.18c-4.06,6.25-6.27,13.22-7.49,20.48c-0.93,5.489-2.77,10.51-5.37,15.43
				c-5.27,10-10.25,20.15-15.25,30.29c-0.86,1.76-1.37,3.76-1.69,5.71c-0.19,1.18-0.09,2.77,0.58,3.66
				c0.95,1.26,2.4,0.35,3.62-0.221c7.21-3.35,13.36-8.109,18.48-14.18c3.21-3.82,6.49-7.609,9.43-11.64
				C262.95,192.3,269.98,190.52,278.06,192.55z M275.13,101.78c2.05,5,3.83,9.63,5.84,14.16c2.09,4.71,1.38,3.96,6.76,3.08
				c1.08-0.18,2.18-0.84,3.08-1.54c2.13-1.66,2.9-4.37,1.52-6.63c-1.48-2.43-2.31-5-3.2-7.66c-1.36-4.11-5.3-5.45-9.19-3.61
				C278.45,100.28,276.95,100.95,275.13,101.78z M272.42,114.97c0.54,0.14,1.43,0.74,1.39,1.02c-0.09,0.71-0.46,1.64-1.02,1.99
				c-2.87,1.8-6.16,0.21-6.79-3.17c-0.8-4.23,0.72-6.8,5.86-9.45c-4.01-1.71-7.66-0.48-8.98,2.91c-1.22,3.15-1.53,6.49-0.36,9.77
				c1.48,4.2,5.35,6.18,9.59,4.89c1.26-0.39,2.4-1.14,3.6-1.71c1.87-0.89,2.9-2.28,2.38-4.39c-0.58-2.31-1.5-4.9-3.87-5.42
				c-1.76-0.38-4.19,0.29-5.49,3.06C270.27,114.66,271.37,114.71,272.42,114.97z"/>
		</g>
		<g>
		</g>
	</g>
</g>
<g>
	<g>
		<path fill="#333333" d="M462.554,237.602c-1.038,2.656-2.332,5.229-4.281,7.338c0.785,0.605,1.57,1.212,2.355,1.817
			c1.544-3.203,3.65-6.023,5.852-8.802c1.569-1.98,4.202-3.586,4.634-6.223c0.216-1.314-0.957-2.308-2.203-1.693
			c-1.921,0.946-3.353,2.533-4.971,3.9c0.854,0.354,1.707,0.707,2.561,1.061c-0.272-1.006-0.118-1.976,0.462-2.909
			c0.676-1.261-0.733-2.915-2.052-2.052c-2.163,1.415-3.416,3.54-5.304,5.234c0.854,0.354,1.707,0.707,2.561,1.061
			c0.002-0.572,0.021-1.142,0.048-1.713c0.023-0.473,0.075-0.941,0.156-1.407c0.18-1.11-0.36-0.197-0.278,0.416
			c0.219,1.643-0.062,3.447,0.544,5.02c1.772,4.589,8.067-3.654,9.091-4.922c-0.836-0.221-1.671-0.441-2.507-0.662
			c0.579,2.583-2.038,4.774-3.978,5.974c0.505,0.863,1.009,1.727,1.514,2.59c1.334-1,2.667-2,4-3
			c-0.684-0.684-1.368-1.368-2.052-2.052c-0.312,0.886-0.909,1.483-1.795,1.795c0.734,0.564,1.469,1.129,2.203,1.693
			c0.106-0.906,0.533-1.574,1.28-2.005c-0.836-0.486-1.671-0.973-2.507-1.459c-0.222,0.666-0.444,1.333-0.666,2
			c-0.393,1.177,1.141,2.49,2.203,1.693c0.445-0.333,0.889-0.666,1.333-1c-0.605-0.785-1.212-1.57-1.817-2.355
			c-0.424,0.506-0.879,0.983-1.363,1.433c-1.533,1.141-0.04,3.747,1.514,2.59c0.771-0.574,1.329-1.178,1.971-1.901
			c1.067-1.203-0.386-3.431-1.817-2.355c-0.444,0.333-0.889,0.667-1.333,1c0.734,0.564,1.469,1.129,2.203,1.693
			c0.223-0.666,0.444-1.333,0.666-2c0.519-1.558-1.444-2.327-2.507-1.459c-1.127,0.921-1.82,1.885-2.052,3.329
			c-0.211,1.313,0.954,2.31,2.203,1.693c1.319-0.649,2.222-1.552,2.871-2.871c0.595-1.206-0.738-3.038-2.052-2.052
			c-1.334,1-2.667,2-4,3c-1.505,1.128-0.173,3.633,1.514,2.59c3.226-1.993,6.262-5.32,5.356-9.36
			c-0.231-1.032-1.8-1.537-2.507-0.662c-1.037,1.284-2.099,2.53-3.246,3.718c-0.236,0.224-0.472,0.448-0.708,0.673
			c-1.29,0.452-1.372,0.964-0.246,1.535c-0.236-0.612-0.176-1.556-0.239-2.198c-0.182-1.83-0.054-3.491-1.283-4.998
			c-0.911-1.117-3.057-0.712-3.761,0.417c-0.991,1.591-0.951,3.767-0.956,5.581c-0.004,1.362,1.611,1.913,2.561,1.061
			c1.683-1.511,2.774-3.507,4.696-4.766c-0.684-0.684-1.368-1.368-2.052-2.052c-0.791,1.476-1.092,2.741-0.872,4.423
			c0.172,1.314,1.492,1.964,2.561,1.061c1.423-1.202,2.674-2.599,4.363-3.432c-0.734-0.564-1.469-1.129-2.203-1.693
			c-0.219,1.332-1.184,2.045-2.134,2.889c-1.148,1.021-2.044,2.402-2.988,3.61c-1.919,2.457-3.704,4.994-5.061,7.809
			c-0.706,1.464,1.135,3.138,2.355,1.817c2.316-2.506,3.819-5.506,5.053-8.662C466.151,236.595,463.25,235.82,462.554,237.602
			L462.554,237.602z"/>
	</g>
</g>
</svg>
